<?xml version="1.0" encoding="UTF-8"?>
<!DOCTYPE svg PUBLIC "-//W3C//DTD SVG 1.1//EN" "http://www.w3.org/Graphics/SVG/1.1/DTD/svg11.dtd">
<svg xmlns="http://www.w3.org/2000/svg" version="1.1" width="602px" height="414px" style="shape-rendering:geometricPrecision; text-rendering:geometricPrecision; image-rendering:optimizeQuality; fill-rule:evenodd; clip-rule:evenodd" xmlns:xlink="http://www.w3.org/1999/xlink">
<g><path style="opacity:0.178" fill="#020202" d="M 165.5,264.5 C 163.975,266.216 162.975,268.216 162.5,270.5C 149.652,255.812 137.319,240.645 125.5,225C 121.94,223.763 118.273,223.263 114.5,223.5C 113.68,221.188 112.847,218.854 112,216.5C 111.171,197.995 111.338,179.662 112.5,161.5C 112.5,179.5 112.5,197.5 112.5,215.5C 114.099,215.768 115.432,215.434 116.5,214.5C 121.5,214.5 126.5,214.5 131.5,214.5C 132.499,170.336 132.832,126.003 132.5,81.5C 127.5,81.5 122.5,81.5 117.5,81.5C 122.521,80.7646 127.687,80.0979 133,79.5C 136.985,79.8181 139.651,81.8181 141,85.5C 141.667,129.5 141.667,173.5 141,217.5C 138.747,221.545 135.247,223.378 130.5,223C 142.407,236.731 154.074,250.564 165.5,264.5 Z"/></g>
<g><path style="opacity:0.999" fill="#fcfcfc" d="M 113.5,82.5 C 119.5,82.5 125.5,82.5 131.5,82.5C 131.5,126.5 131.5,170.5 131.5,214.5C 126.5,214.5 121.5,214.5 116.5,214.5C 115.5,214.5 114.5,214.5 113.5,214.5C 113.196,178.654 113.529,142.82 114.5,107C 114.167,105.5 113.833,104 113.5,102.5C 112.893,102.624 112.56,102.957 112.5,103.5C 106.691,106.907 101.025,110.574 95.5,114.5C 94.914,114.291 94.414,113.957 94,113.5C 93.5012,109.514 93.3345,105.514 93.5,101.5C 93.1416,97.0497 94.8083,93.5497 98.5,91C 103.23,87.6365 108.23,84.8032 113.5,82.5 Z"/></g>
<g><path style="opacity:0.057" fill="#010203" d="M 280.5,110.5 C 278.919,112.142 278.253,114.142 278.5,116.5C 276.225,115.889 274.559,114.555 273.5,112.5C 269.145,106.145 263.812,100.812 257.5,96.5C 253.26,92.5446 248.26,89.878 242.5,88.5C 239.094,86.891 235.427,85.7244 231.5,85C 224.174,84.5003 216.841,84.3337 209.5,84.5C 238.295,78.8785 261.961,87.5452 280.5,110.5 Z"/></g>
<g><path style="opacity:0.057" fill="#0a0a0a" d="M 393.5,111.5 C 392.774,114.179 391.941,116.846 391,119.5C 381.348,102.681 367.181,91.6806 348.5,86.5C 342.426,84.7517 336.093,84.085 329.5,84.5C 326.518,84.9629 323.518,85.2962 320.5,85.5C 350.087,79.1154 374.421,87.7821 393.5,111.5 Z"/></g>
<g><path style="opacity:0.165" fill="#040404" d="M 435.5,320.5 C 451.022,331.374 467.022,332.208 483.5,323C 493.408,312.308 494.908,300.474 488,287.5C 485.5,283.667 482.333,280.5 478.5,278C 469.833,272.667 461.167,267.333 452.5,262C 445.257,255.941 443.09,248.441 446,239.5C 450.748,233.294 457.082,230.294 465,230.5C 468.845,230.906 472.679,231.406 476.5,232C 480.167,233.833 483.833,235.667 487.5,237.5C 489.68,231.716 488.013,227.716 482.5,225.5C 479.199,223.416 475.532,222.082 471.5,221.5C 466.13,221.392 460.797,221.725 455.5,222.5C 430.408,222.52 410.241,212.52 395,192.5C 372.136,220.344 343.636,228.177 309.5,216C 298.276,210.786 288.776,203.286 281,193.5C 263.386,215.267 240.552,224.767 212.5,222C 215.583,222.786 217.749,224.619 219,227.5C 219.667,262.167 219.667,296.833 219,331.5C 218.167,333.667 216.667,335.167 214.5,336C 209.16,337.534 204.66,336.367 201,332.5C 200.51,331.207 200.343,329.873 200.5,328.5C 200.833,328.5 201.167,328.5 201.5,328.5C 204.281,328.906 207.281,328.906 210.5,328.5C 210.667,293.832 210.5,259.165 210,224.5C 207.959,223.577 205.792,223.244 203.5,223.5C 205.954,222.379 208.621,221.546 211.5,221C 178.235,212.572 159.235,191.405 154.5,157.5C 155.167,159.167 155.833,160.833 156.5,162.5C 163.644,189.144 180.644,205.977 207.5,213C 232.817,216.888 253.984,209.388 271,190.5C 273.347,187.806 275.18,184.806 276.5,181.5C 299.929,213.679 329.929,221.512 366.5,205C 370.447,202.72 374.113,200.053 377.5,197C 382.407,191.602 387.073,186.102 391.5,180.5C 401.999,198.754 417.665,209.587 438.5,213C 476.799,215.609 500.966,198.443 511,161.5C 514.726,127.933 501.559,103.933 471.5,89.5C 467.576,87.1351 463.243,85.6351 458.5,85C 451.842,84.5004 445.175,84.3337 438.5,84.5C 464.752,79.8634 486.919,87.53 505,107.5C 527,137.5 527,167.5 505,197.5C 495.919,207.914 484.752,215.081 471.5,219C 479.359,220.066 486.692,222.732 493.5,227C 497.676,231.557 498.509,236.724 496,242.5C 494.701,243.98 493.034,244.646 491,244.5C 486.701,243.437 482.534,241.937 478.5,240C 471.198,237.621 464.198,238.288 457.5,242C 452.945,246.433 452.445,251.266 456,256.5C 458.167,258.667 460.333,260.833 462.5,263C 472.934,268.631 482.767,275.131 492,282.5C 502.36,294.735 504.026,308.068 497,322.5C 490.006,332.898 480.173,337.898 467.5,337.5C 455.883,337.684 445.716,334.018 437,326.5C 435.872,324.655 435.372,322.655 435.5,320.5 Z"/></g>
<g><path style="opacity:0.42" fill="#b0b0b0" d="M 329.5,84.5 C 336.093,84.085 342.426,84.7517 348.5,86.5C 341.992,86.1316 335.658,85.465 329.5,84.5 Z"/></g>
<g><path style="opacity:0.424" fill="#aeaeb0" d="M 434.5,85.5 C 435.568,84.5655 436.901,84.2322 438.5,84.5C 445.175,84.3337 451.842,84.5004 458.5,85C 463.243,85.6351 467.576,87.1351 471.5,89.5C 466.506,88.3385 461.506,87.1718 456.5,86C 449.174,85.5003 441.841,85.3337 434.5,85.5 Z"/></g>
<g><path style="opacity:1" fill="#29a1cf" d="M 209.5,84.5 C 216.841,84.3337 224.174,84.5003 231.5,85C 235.427,85.7244 239.094,86.891 242.5,88.5C 227.816,85.7621 213.15,85.9288 198.5,89C 196.76,90.517 195.094,92.017 193.5,93.5C 191.5,93.5 189.5,93.5 187.5,93.5C 194.072,88.8881 201.406,85.8881 209.5,84.5 Z"/></g>
<g><path style="opacity:0.998" fill="#f6f9f9" d="M 329.5,84.5 C 335.658,85.465 341.992,86.1316 348.5,86.5C 367.181,91.6806 381.348,102.681 391,119.5C 391.941,116.846 392.774,114.179 393.5,111.5C 404.338,98.5696 418.005,89.9029 434.5,85.5C 441.841,85.3337 449.174,85.5003 456.5,86C 461.506,87.1718 466.506,88.3385 471.5,89.5C 501.559,103.933 514.726,127.933 511,161.5C 500.966,198.443 476.799,215.609 438.5,213C 417.665,209.587 401.999,198.754 391.5,180.5C 386.33,170.573 383.497,159.906 383,148.5C 382.901,146.347 382.067,144.681 380.5,143.5C 376.195,116.865 360.528,102.865 333.5,101.5C 308.289,103.112 292.289,116.112 285.5,140.5C 284.08,132.89 281.413,125.556 277.5,118.5C 277.863,117.817 278.196,117.15 278.5,116.5C 278.253,114.142 278.919,112.142 280.5,110.5C 288.174,101.344 297.508,94.1778 308.5,89C 312.307,87.1192 316.307,85.9526 320.5,85.5C 323.518,85.2962 326.518,84.9629 329.5,84.5 Z"/></g>
<g><path style="opacity:1" fill="#06aced" d="M 242.5,88.5 C 248.26,89.878 253.26,92.5446 257.5,96.5C 255.786,97.7384 253.786,98.405 251.5,98.5C 251.069,102.077 249.069,104.41 245.5,105.5C 244.09,105.132 243.09,104.299 242.5,103C 239.833,102.667 237.167,102.333 234.5,102C 233.619,100.529 232.286,99.6962 230.5,99.5C 222.856,100.565 215.189,100.732 207.5,100C 206.167,97.176 204.667,97.3426 203,100.5C 202.009,99.0611 200.676,98.0611 199,97.5C 198.316,95.641 197.316,93.9743 196,92.5C 195.658,94.6192 194.825,94.9526 193.5,93.5C 195.094,92.017 196.76,90.517 198.5,89C 213.15,85.9288 227.816,85.7621 242.5,88.5 Z"/></g>
<g><path style="opacity:0.177" fill="#030303" d="M 93.5,101.5 C 93.3345,105.514 93.5012,109.514 94,113.5C 94.414,113.957 94.914,114.291 95.5,114.5C 101.025,110.574 106.691,106.907 112.5,103.5C 112.866,109.306 112.866,115.306 112.5,121.5C 111.837,119.958 111.17,118.291 110.5,116.5C 107.091,118.422 103.591,120.089 100,121.5C 97.6839,121.066 95.6839,120.066 94,118.5C 92.2969,112.739 92.1302,107.072 93.5,101.5 Z"/></g>
<g><path style="opacity:0.17" fill="#020304" d="M 268.5,158.5 C 268.167,158.5 267.833,158.5 267.5,158.5C 268.846,133.337 257.513,117.171 233.5,110C 202.194,107.49 184.527,121.823 180.5,153C 182.344,174.831 193.678,188.831 214.5,195C 219.102,196.122 223.768,196.622 228.5,196.5C 203.579,200.12 185.745,190.453 175,167.5C 173.512,162.227 172.346,156.893 171.5,151.5C 171.5,150.833 171.5,150.167 171.5,149.5C 173.124,125.371 185.457,109.538 208.5,102C 240.508,97.746 260.341,111.246 268,142.5C 268.499,147.823 268.666,153.156 268.5,158.5 Z"/></g>
<g><path style="opacity:0.171" fill="#030304" d="M 380.5,143.5 C 370.867,115.512 351.534,105.012 322.5,112C 295.177,126.301 288.011,147.467 301,175.5C 311.64,190.401 326.14,197.068 344.5,195.5C 318.037,200.182 299.203,190.182 288,165.5C 286.438,161.986 285.605,158.319 285.5,154.5C 285.5,149.833 285.5,145.167 285.5,140.5C 292.289,116.112 308.289,103.112 333.5,101.5C 360.528,102.865 376.195,116.865 380.5,143.5 Z"/></g>
<g><path style="opacity:1" fill="#43a0c2" d="M 452.5,101.5 C 442.92,99.3492 435.253,102.016 429.5,109.5C 428.178,109.33 427.011,109.663 426,110.5C 425.612,109.572 424.945,108.905 424,108.5C 422.2,109.32 420.366,109.986 418.5,110.5C 421.253,108.279 424.253,106.279 427.5,104.5C 428.6,103.442 429.934,102.608 431.5,102C 438.026,99.8916 444.692,99.225 451.5,100C 452.056,100.383 452.389,100.883 452.5,101.5 Z"/></g>
<g><path style="opacity:0.735" fill="#474b4d" d="M 452.5,101.5 C 454.621,101.325 456.621,101.659 458.5,102.5C 458.261,104.467 458.594,106.301 459.5,108C 455.944,108.685 452.611,108.185 449.5,106.5C 447.423,106.692 445.423,107.192 443.5,108C 441.125,111.369 438.459,114.535 435.5,117.5C 434.033,118.695 432.533,118.695 431,117.5C 429.624,119.047 428.124,120.38 426.5,121.5C 421.055,122.759 415.721,124.426 410.5,126.5C 410.667,126.833 410.833,127.167 411,127.5C 414.055,126.222 417.222,125.722 420.5,126C 418.288,128.921 416.455,132.088 415,135.5C 414.25,136.126 413.416,136.626 412.5,137C 413.252,137.671 413.586,138.504 413.5,139.5C 411.15,142.349 409.15,145.515 407.5,149C 405.19,149.497 402.857,149.663 400.5,149.5C 400.466,145.284 401.799,141.617 404.5,138.5C 404.167,137.833 403.833,137.167 403.5,136.5C 405.382,133.787 407.049,130.953 408.5,128C 408.355,127.228 408.022,126.561 407.5,126C 408.844,122.149 410.844,118.649 413.5,115.5C 414.735,115.721 415.735,116.388 416.5,117.5C 418.928,114.902 421.761,112.902 425,111.5C 425.5,111.667 426,111.833 426.5,112C 425.663,113.011 425.33,114.178 425.5,115.5C 429.829,115.207 431.163,113.207 429.5,109.5C 435.253,102.016 442.92,99.3492 452.5,101.5 Z"/></g>
<g><path style="opacity:1" fill="#31819e" d="M 429.5,109.5 C 431.163,113.207 429.829,115.207 425.5,115.5C 425.33,114.178 425.663,113.011 426.5,112C 426,111.833 425.5,111.667 425,111.5C 421.761,112.902 418.928,114.902 416.5,117.5C 415.735,116.388 414.735,115.721 413.5,115.5C 414.785,113.548 416.451,111.882 418.5,110.5C 420.366,109.986 422.2,109.32 424,108.5C 424.945,108.905 425.612,109.572 426,110.5C 427.011,109.663 428.178,109.33 429.5,109.5 Z"/></g>
<g><path style="opacity:0.959" fill="#347d95" d="M 458.5,102.5 C 461.067,102.855 463.567,103.521 466,104.5C 467.755,103.387 469.255,103.72 470.5,105.5C 468.436,105.762 467.103,106.929 466.5,109C 468.199,109.393 469.699,108.893 471,107.5C 486.855,116.539 495.022,130.206 495.5,148.5C 494.312,147.316 493.145,147.316 492,148.5C 492.99,143.077 492.49,137.743 490.5,132.5C 488.591,131.652 486.591,131.318 484.5,131.5C 484.167,131.5 483.833,131.5 483.5,131.5C 484.007,130.141 485.007,129.141 486.5,128.5C 482.791,126.791 480.124,124.124 478.5,120.5C 477.185,118.35 475.185,117.016 472.5,116.5C 467.696,114.818 462.863,113.485 458,112.5C 454.208,112.329 450.708,113.162 447.5,115C 446.057,116.067 444.724,117.234 443.5,118.5C 442.914,118.291 442.414,117.957 442,117.5C 441.947,120.245 440.78,122.245 438.5,123.5C 437.571,122.311 437.238,120.978 437.5,119.5C 433.71,118.953 431.71,120.62 431.5,124.5C 430.311,125.429 428.978,125.762 427.5,125.5C 427.768,123.901 427.434,122.568 426.5,121.5C 428.124,120.38 429.624,119.047 431,117.5C 432.533,118.695 434.033,118.695 435.5,117.5C 438.459,114.535 441.125,111.369 443.5,108C 445.423,107.192 447.423,106.692 449.5,106.5C 452.611,108.185 455.944,108.685 459.5,108C 458.594,106.301 458.261,104.467 458.5,102.5 Z"/></g>
<g><path style="opacity:1" fill="#10aae7" d="M 257.5,96.5 C 263.812,100.812 269.145,106.145 273.5,112.5C 276.546,120.12 279.713,127.786 283,135.5C 283.448,142.029 284.282,148.363 285.5,154.5C 285.605,158.319 286.438,161.986 288,165.5C 299.203,190.182 318.037,200.182 344.5,195.5C 346.527,195.662 348.527,195.495 350.5,195C 351.056,194.617 351.389,194.117 351.5,193.5C 373.525,184.129 383.191,167.463 380.5,143.5C 382.067,144.681 382.901,146.347 383,148.5C 383.497,159.906 386.33,170.573 391.5,180.5C 387.073,186.102 382.407,191.602 377.5,197C 374.113,200.053 370.447,202.72 366.5,205C 329.929,221.512 299.929,213.679 276.5,181.5C 273.555,173.94 270.888,166.274 268.5,158.5C 268.666,153.156 268.499,147.823 268,142.5C 260.341,111.246 240.508,97.746 208.5,102C 185.457,109.538 173.124,125.371 171.5,149.5C 165.741,149.786 160.075,149.452 154.5,148.5C 156.121,124.279 167.121,105.946 187.5,93.5C 189.5,93.5 191.5,93.5 193.5,93.5C 194.825,94.9526 195.658,94.6192 196,92.5C 197.316,93.9743 198.316,95.641 199,97.5C 200.676,98.0611 202.009,99.0611 203,100.5C 204.667,97.3426 206.167,97.176 207.5,100C 215.189,100.732 222.856,100.565 230.5,99.5C 232.286,99.6962 233.619,100.529 234.5,102C 237.167,102.333 239.833,102.667 242.5,103C 243.09,104.299 244.09,105.132 245.5,105.5C 249.069,104.41 251.069,102.077 251.5,98.5C 253.786,98.405 255.786,97.7384 257.5,96.5 Z"/></g>
<g><path style="opacity:0.733" fill="#576b71" d="M 478.5,120.5 C 478.631,121.376 478.298,122.043 477.5,122.5C 473.764,121.523 473.764,122.19 477.5,124.5C 479.529,123.371 479.863,123.871 478.5,126C 480.957,127.154 480.957,128.488 478.5,130C 475.833,130.667 473.167,130.667 470.5,130C 471.428,126.861 472.428,123.694 473.5,120.5C 472.675,119.614 471.675,119.281 470.5,119.5C 469.286,122.823 468.286,126.157 467.5,129.5C 467.119,128.069 466.119,127.236 464.5,127C 464.833,126.667 465.167,126.333 465.5,126C 464.151,125.228 463.318,124.061 463,122.5C 462.586,122.957 462.086,123.291 461.5,123.5C 459.148,118.994 456.148,118.494 452.5,122C 454.256,122.202 455.922,122.702 457.5,123.5C 456.098,124.842 456.431,125.676 458.5,126C 454.152,126.465 449.819,126.965 445.5,127.5C 445.649,128.552 445.483,129.552 445,130.5C 444.481,129.484 443.647,128.818 442.5,128.5C 440.865,129.046 439.199,129.38 437.5,129.5C 436.209,128.527 436.209,127.527 437.5,126.5C 436.833,126.167 436.167,125.833 435.5,125.5C 433.675,126.651 431.675,127.318 429.5,127.5C 429.5,128.5 429.5,129.5 429.5,130.5C 427.667,128.378 426,126.044 424.5,123.5C 421.56,126.533 419.226,130.033 417.5,134C 420.261,134.145 422.927,133.645 425.5,132.5C 425.795,134.735 425.461,136.735 424.5,138.5C 424.657,137.127 424.49,135.793 424,134.5C 420.114,135.501 416.614,137.167 413.5,139.5C 413.586,138.504 413.252,137.671 412.5,137C 413.416,136.626 414.25,136.126 415,135.5C 416.455,132.088 418.288,128.921 420.5,126C 417.222,125.722 414.055,126.222 411,127.5C 410.833,127.167 410.667,126.833 410.5,126.5C 415.721,124.426 421.055,122.759 426.5,121.5C 427.434,122.568 427.768,123.901 427.5,125.5C 428.978,125.762 430.311,125.429 431.5,124.5C 431.71,120.62 433.71,118.953 437.5,119.5C 437.238,120.978 437.571,122.311 438.5,123.5C 440.78,122.245 441.947,120.245 442,117.5C 442.414,117.957 442.914,118.291 443.5,118.5C 444.724,117.234 446.057,116.067 447.5,115C 450.708,113.162 454.208,112.329 458,112.5C 462.863,113.485 467.696,114.818 472.5,116.5C 475.185,117.016 477.185,118.35 478.5,120.5 Z"/></g>
<g><path style="opacity:0.676" fill="#50585a" d="M 467.5,129.5 C 465.493,131.837 462.827,133.171 459.5,133.5C 456.873,132.908 454.206,132.575 451.5,132.5C 451.649,133.552 451.483,134.552 451,135.5C 448.031,135.481 444.865,135.314 441.5,135C 440.975,134.308 440.308,133.808 439.5,133.5C 438.374,134.808 438.374,136.142 439.5,137.5C 438.352,138.895 437.352,138.728 436.5,137C 437.435,134.619 437.768,132.119 437.5,129.5C 439.199,129.38 440.865,129.046 442.5,128.5C 443.647,128.818 444.481,129.484 445,130.5C 445.483,129.552 445.649,128.552 445.5,127.5C 449.819,126.965 454.152,126.465 458.5,126C 456.431,125.676 456.098,124.842 457.5,123.5C 455.922,122.702 454.256,122.202 452.5,122C 456.148,118.494 459.148,118.994 461.5,123.5C 462.086,123.291 462.586,122.957 463,122.5C 463.318,124.061 464.151,125.228 465.5,126C 465.167,126.333 464.833,126.667 464.5,127C 466.119,127.236 467.119,128.069 467.5,129.5 Z"/></g>
<g><path style="opacity:1" fill="#c2e5eb" d="M 427.5,104.5 C 424.253,106.279 421.253,108.279 418.5,110.5C 416.451,111.882 414.785,113.548 413.5,115.5C 411.983,115.511 410.816,116.177 410,117.5C 397.075,136.641 396.241,156.307 407.5,176.5C 404.675,176.919 402.509,175.919 401,173.5C 401.229,169.121 399.896,165.454 397,162.5C 395.349,159.263 395.182,155.93 396.5,152.5C 396.558,149.911 395.892,147.577 394.5,145.5C 394.667,144.833 394.833,144.167 395,143.5C 396.044,144.623 396.71,145.956 397,147.5C 397.985,145.634 398.485,143.634 398.5,141.5C 397.161,138.312 396.661,134.978 397,131.5C 400.923,121.988 406.59,113.655 414,106.5C 414.414,106.957 414.914,107.291 415.5,107.5C 419.196,105.268 423.196,104.268 427.5,104.5 Z"/></g>
<g><path style="opacity:1" fill="#3eabd2" d="M 273.5,112.5 C 274.559,114.555 276.225,115.889 278.5,116.5C 278.196,117.15 277.863,117.817 277.5,118.5C 281.413,125.556 284.08,132.89 285.5,140.5C 285.5,145.167 285.5,149.833 285.5,154.5C 284.282,148.363 283.448,142.029 283,135.5C 279.713,127.786 276.546,120.12 273.5,112.5 Z"/></g>
<g><path style="opacity:0.582" fill="#252627" d="M 429.5,130.5 C 428.329,131.345 426.995,132.011 425.5,132.5C 422.927,133.645 420.261,134.145 417.5,134C 419.226,130.033 421.56,126.533 424.5,123.5C 426,126.044 427.667,128.378 429.5,130.5 Z"/></g>
<g><path style="opacity:1" fill="#43aacb" d="M 470.5,105.5 C 473.342,107.017 476.342,108.017 479.5,108.5C 480.316,111.107 481.983,113.107 484.5,114.5C 495.883,126.094 500.05,139.094 497,153.5C 496.617,154.056 496.117,154.389 495.5,154.5C 495.5,152.5 495.5,150.5 495.5,148.5C 495.022,130.206 486.855,116.539 471,107.5C 469.699,108.893 468.199,109.393 466.5,109C 467.103,106.929 468.436,105.762 470.5,105.5 Z"/></g>
<g><path style="opacity:0.094" fill="#c6c6c6" d="M 112.5,103.5 C 112.56,102.957 112.893,102.624 113.5,102.5C 113.833,104 114.167,105.5 114.5,107C 113.529,142.82 113.196,178.654 113.5,214.5C 114.5,214.5 115.5,214.5 116.5,214.5C 115.432,215.434 114.099,215.768 112.5,215.5C 112.5,197.5 112.5,179.5 112.5,161.5C 112.5,148.167 112.5,134.833 112.5,121.5C 112.866,115.306 112.866,109.306 112.5,103.5 Z"/></g>
<g><path style="opacity:1" fill="#cbecf0" d="M 484.5,114.5 C 485.833,114.5 487.167,114.5 488.5,114.5C 488.244,116.912 489.244,118.579 491.5,119.5C 494.809,126.784 498.642,133.784 503,140.5C 503.667,145.5 503.667,150.5 503,155.5C 500.875,160.997 499.541,160.663 499,154.5C 498.333,155.167 497.667,155.833 497,156.5C 496.768,161.848 495.601,166.848 493.5,171.5C 493.5,170.167 493.5,168.833 493.5,167.5C 494.91,163.296 495.577,158.963 495.5,154.5C 496.117,154.389 496.617,154.056 497,153.5C 500.05,139.094 495.883,126.094 484.5,114.5 Z"/></g>
<g><path style="opacity:0.818" fill="#4e7984" d="M 437.5,129.5 C 437.768,132.119 437.435,134.619 436.5,137C 437.352,138.728 438.352,138.895 439.5,137.5C 443.225,137.405 446.891,137.238 450.5,137C 448.718,137.814 447.218,138.981 446,140.5C 445.275,139.941 444.442,139.608 443.5,139.5C 439.274,142.095 434.607,143.762 429.5,144.5C 428.281,145.646 426.948,146.646 425.5,147.5C 424.37,151.094 422.703,154.427 420.5,157.5C 419.52,154.914 419.187,152.247 419.5,149.5C 419.5,148.833 419.833,148.5 420.5,148.5C 421.404,147.791 421.737,146.791 421.5,145.5C 421.821,143.952 422.821,143.285 424.5,143.5C 424.5,141.833 424.5,140.167 424.5,138.5C 425.461,136.735 425.795,134.735 425.5,132.5C 426.995,132.011 428.329,131.345 429.5,130.5C 429.5,129.5 429.5,128.5 429.5,127.5C 431.675,127.318 433.675,126.651 435.5,125.5C 436.167,125.833 436.833,126.167 437.5,126.5C 436.209,127.527 436.209,128.527 437.5,129.5 Z"/></g>
<g><path style="opacity:0.589" fill="#232424" d="M 424.5,138.5 C 424.5,140.167 424.5,141.833 424.5,143.5C 422.821,143.285 421.821,143.952 421.5,145.5C 417.596,146.977 413.596,147.811 409.5,148C 411.246,145.341 412.58,142.508 413.5,139.5C 416.614,137.167 420.114,135.501 424,134.5C 424.49,135.793 424.657,137.127 424.5,138.5 Z"/></g>
<g><path style="opacity:1" fill="#aed6e1" d="M 154.5,148.5 C 160.075,149.452 165.741,149.786 171.5,149.5C 171.5,150.167 171.5,150.833 171.5,151.5C 166.26,150.551 160.927,150.218 155.5,150.5C 156.021,154.481 156.354,158.481 156.5,162.5C 155.833,160.833 155.167,159.167 154.5,157.5C 154.5,154.5 154.5,151.5 154.5,148.5 Z"/></g>
<g><path style="opacity:0.832" fill="#babbbb" d="M 113.5,82.5 C 114.568,81.5655 115.901,81.2322 117.5,81.5C 122.5,81.5 127.5,81.5 132.5,81.5C 132.832,126.003 132.499,170.336 131.5,214.5C 131.5,170.5 131.5,126.5 131.5,82.5C 125.5,82.5 119.5,82.5 113.5,82.5 Z"/></g>
<g><path style="opacity:0.998" fill="#f6f7f7" d="M 171.5,151.5 C 172.346,156.893 173.512,162.227 175,167.5C 185.745,190.453 203.579,200.12 228.5,196.5C 249.412,191.921 262.412,179.254 267.5,158.5C 267.833,158.5 268.167,158.5 268.5,158.5C 270.888,166.274 273.555,173.94 276.5,181.5C 275.18,184.806 273.347,187.806 271,190.5C 253.984,209.388 232.817,216.888 207.5,213C 180.644,205.977 163.644,189.144 156.5,162.5C 156.354,158.481 156.021,154.481 155.5,150.5C 160.927,150.218 166.26,150.551 171.5,151.5 Z"/></g>
<g><path style="opacity:0.965" fill="#32819a" d="M 413.5,115.5 C 410.844,118.649 408.844,122.149 407.5,126C 408.022,126.561 408.355,127.228 408.5,128C 407.049,130.953 405.382,133.787 403.5,136.5C 403.833,137.167 404.167,137.833 404.5,138.5C 401.799,141.617 400.466,145.284 400.5,149.5C 401.546,151.785 401.546,154.118 400.5,156.5C 401.833,156.5 403.167,156.5 404.5,156.5C 404.351,157.552 404.517,158.552 405,159.5C 407.201,161.179 409.034,163.179 410.5,165.5C 411.736,166.246 413.07,166.579 414.5,166.5C 414.752,171.519 415.252,176.519 416,181.5C 416.608,183.066 417.442,184.4 418.5,185.5C 418.557,186.609 418.89,187.609 419.5,188.5C 414.521,185.521 410.521,181.521 407.5,176.5C 396.241,156.307 397.075,136.641 410,117.5C 410.816,116.177 411.983,115.511 413.5,115.5 Z"/></g>
<g><path style="opacity:0.869" fill="#5a6f74" d="M 459.5,133.5 C 461.265,134.461 463.265,134.795 465.5,134.5C 464.364,139.069 462.364,143.236 459.5,147C 462.7,147.101 465.7,147.768 468.5,149C 467.207,149.49 465.873,149.657 464.5,149.5C 464.5,151.167 464.5,152.833 464.5,154.5C 463.5,154.5 462.5,154.5 461.5,154.5C 461.662,156.527 461.495,158.527 461,160.5C 460.667,159.5 460.333,158.5 460,157.5C 459.654,159.218 459.154,160.885 458.5,162.5C 457.167,163.833 455.833,163.833 454.5,162.5C 455.59,161.391 455.59,160.391 454.5,159.5C 453.41,160.727 452.076,161.56 450.5,162C 451.517,163.049 451.684,164.216 451,165.5C 449.235,168.032 447.735,170.699 446.5,173.5C 445.221,174.968 443.554,175.635 441.5,175.5C 441.84,172.856 441.173,170.523 439.5,168.5C 439.977,167.522 440.643,166.689 441.5,166C 439.527,165.505 437.527,165.338 435.5,165.5C 435.5,166.5 435.5,167.5 435.5,168.5C 433.32,169.117 431.32,170.117 429.5,171.5C 428.019,175.285 426.353,178.952 424.5,182.5C 424.833,182.833 425.167,183.167 425.5,183.5C 427.795,182.568 430.129,181.735 432.5,181C 434.544,180.502 435.878,179.335 436.5,177.5C 437.5,178.5 438.5,179.5 439.5,180.5C 435.423,181.37 431.423,182.537 427.5,184C 421.345,186.1 421.012,188.766 426.5,192C 433.594,193.133 437.928,190.299 439.5,183.5C 440.401,184.29 441.068,185.29 441.5,186.5C 440.226,187.189 440.226,188.023 441.5,189C 438.179,190.484 436.179,192.984 435.5,196.5C 434.609,195.89 433.609,195.557 432.5,195.5C 427.436,194.469 423.102,192.135 419.5,188.5C 418.89,187.609 418.557,186.609 418.5,185.5C 420.027,185.573 421.027,184.906 421.5,183.5C 423.109,179.783 425.109,176.283 427.5,173C 424.861,172.412 422.527,172.912 420.5,174.5C 419.127,174.657 417.793,174.49 416.5,174C 418.066,173.392 419.4,172.558 420.5,171.5C 425.787,171.536 429.454,169.202 431.5,164.5C 427.362,164.21 423.695,162.876 420.5,160.5C 417.649,161.012 416.316,162.679 416.5,165.5C 415.833,165.833 415.167,166.167 414.5,166.5C 413.07,166.579 411.736,166.246 410.5,165.5C 409.034,163.179 407.201,161.179 405,159.5C 404.517,158.552 404.351,157.552 404.5,156.5C 403.167,156.5 401.833,156.5 400.5,156.5C 401.546,154.118 401.546,151.785 400.5,149.5C 402.857,149.663 405.19,149.497 407.5,149C 409.15,145.515 411.15,142.349 413.5,139.5C 412.58,142.508 411.246,145.341 409.5,148C 413.596,147.811 417.596,146.977 421.5,145.5C 421.737,146.791 421.404,147.791 420.5,148.5C 419.065,147.904 417.398,147.904 415.5,148.5C 407.638,149.233 405.138,153.233 408,160.5C 409.011,161.337 410.178,161.67 411.5,161.5C 413.582,161.528 415.416,160.861 417,159.5C 417.996,156.091 418.829,152.758 419.5,149.5C 419.187,152.247 419.52,154.914 420.5,157.5C 422.703,154.427 424.37,151.094 425.5,147.5C 426.948,146.646 428.281,145.646 429.5,144.5C 434.607,143.762 439.274,142.095 443.5,139.5C 444.442,139.608 445.275,139.941 446,140.5C 447.218,138.981 448.718,137.814 450.5,137C 446.891,137.238 443.225,137.405 439.5,137.5C 438.374,136.142 438.374,134.808 439.5,133.5C 440.308,133.808 440.975,134.308 441.5,135C 444.865,135.314 448.031,135.481 451,135.5C 451.483,134.552 451.649,133.552 451.5,132.5C 454.206,132.575 456.873,132.908 459.5,133.5 Z"/></g>
<g><path style="opacity:0.551" fill="#131414" d="M 420.5,148.5 C 419.833,148.5 419.5,148.833 419.5,149.5C 418.829,152.758 417.996,156.091 417,159.5C 415.416,160.861 413.582,161.528 411.5,161.5C 409.915,157.542 411.082,154.542 415,152.5C 415.49,151.207 415.657,149.873 415.5,148.5C 417.398,147.904 419.065,147.904 420.5,148.5 Z"/></g>
<g><path style="opacity:0.618" fill="#353635" d="M 415.5,148.5 C 415.657,149.873 415.49,151.207 415,152.5C 411.082,154.542 409.915,157.542 411.5,161.5C 410.178,161.67 409.011,161.337 408,160.5C 405.138,153.233 407.638,149.233 415.5,148.5 Z"/></g>
<g><path style="opacity:0.618" fill="#2d2e2f" d="M 420.5,171.5 C 418.782,169.777 417.449,167.777 416.5,165.5C 416.316,162.679 417.649,161.012 420.5,160.5C 423.695,162.876 427.362,164.21 431.5,164.5C 429.454,169.202 425.787,171.536 420.5,171.5 Z"/></g>
<g><path style="opacity:0.78" fill="#587a83" d="M 478.5,120.5 C 480.124,124.124 482.791,126.791 486.5,128.5C 485.007,129.141 484.007,130.141 483.5,131.5C 480.52,132.025 477.687,132.025 475,131.5C 472.739,131.865 470.573,132.531 468.5,133.5C 467.281,137.384 465.615,141.051 463.5,144.5C 464.167,144.833 464.833,145.167 465.5,145.5C 469.783,144.224 473.95,142.89 478,141.5C 482.508,142.835 487.008,142.669 491.5,141C 489.623,138.894 487.29,137.561 484.5,137C 485.752,135.172 485.752,133.339 484.5,131.5C 486.591,131.318 488.591,131.652 490.5,132.5C 492.49,137.743 492.99,143.077 492,148.5C 493.145,147.316 494.312,147.316 495.5,148.5C 495.5,150.5 495.5,152.5 495.5,154.5C 495.577,158.963 494.91,163.296 493.5,167.5C 491.5,170.5 489.5,173.5 487.5,176.5C 486.135,174.409 485.468,172.076 485.5,169.5C 485.374,167.8 484.707,166.3 483.5,165C 485.58,161.643 486.247,158.143 485.5,154.5C 482.261,156.149 480.761,158.816 481,162.5C 480.184,163.823 479.017,164.489 477.5,164.5C 477.018,161.954 476.018,159.621 474.5,157.5C 473.388,159.419 472.054,161.086 470.5,162.5C 471.49,159.849 472.49,157.183 473.5,154.5C 473.566,152.734 472.732,151.734 471,151.5C 469.351,152.786 468.185,154.453 467.5,156.5C 466.167,157.167 464.833,157.833 463.5,158.5C 464.428,159.768 464.595,161.101 464,162.5C 462.303,163.364 461.137,164.697 460.5,166.5C 455.921,167.044 454.254,169.378 455.5,173.5C 457.655,174.001 459.322,175.001 460.5,176.5C 459.305,176.866 458.639,177.699 458.5,179C 459.721,179.246 460.721,180.08 461.5,181.5C 460.391,181.557 459.391,181.89 458.5,182.5C 456.883,183.038 455.216,183.371 453.5,183.5C 453.785,181.712 453.452,180.045 452.5,178.5C 451.859,179.993 450.859,180.993 449.5,181.5C 448.176,178.205 449.509,176.872 453.5,177.5C 453.5,176.167 453.5,174.833 453.5,173.5C 451.167,173.5 448.833,173.5 446.5,173.5C 447.735,170.699 449.235,168.032 451,165.5C 451.684,164.216 451.517,163.049 450.5,162C 452.076,161.56 453.41,160.727 454.5,159.5C 455.59,160.391 455.59,161.391 454.5,162.5C 455.833,163.833 457.167,163.833 458.5,162.5C 459.154,160.885 459.654,159.218 460,157.5C 460.333,158.5 460.667,159.5 461,160.5C 461.495,158.527 461.662,156.527 461.5,154.5C 462.5,154.5 463.5,154.5 464.5,154.5C 464.5,152.833 464.5,151.167 464.5,149.5C 465.873,149.657 467.207,149.49 468.5,149C 465.7,147.768 462.7,147.101 459.5,147C 462.364,143.236 464.364,139.069 465.5,134.5C 463.265,134.795 461.265,134.461 459.5,133.5C 462.827,133.171 465.493,131.837 467.5,129.5C 468.286,126.157 469.286,122.823 470.5,119.5C 471.675,119.281 472.675,119.614 473.5,120.5C 472.428,123.694 471.428,126.861 470.5,130C 473.167,130.667 475.833,130.667 478.5,130C 480.957,128.488 480.957,127.154 478.5,126C 479.863,123.871 479.529,123.371 477.5,124.5C 473.764,122.19 473.764,121.523 477.5,122.5C 478.298,122.043 478.631,121.376 478.5,120.5 Z"/></g>
<g><path style="opacity:0.722" fill="#58676a" d="M 478.5,144.5 C 482.179,144.724 485.846,145.058 489.5,145.5C 488.591,147.761 488.258,149.928 488.5,152C 485.269,153.466 481.935,154.633 478.5,155.5C 477.526,153.257 477.192,150.924 477.5,148.5C 475.202,147.69 472.868,146.856 470.5,146C 473.365,145.817 476.031,145.317 478.5,144.5 Z"/></g>
<g><path style="opacity:0.722" fill="#566163" d="M 483.5,131.5 C 483.833,131.5 484.167,131.5 484.5,131.5C 485.752,133.339 485.752,135.172 484.5,137C 487.29,137.561 489.623,138.894 491.5,141C 487.008,142.669 482.508,142.835 478,141.5C 473.95,142.89 469.783,144.224 465.5,145.5C 464.833,145.167 464.167,144.833 463.5,144.5C 465.615,141.051 467.281,137.384 468.5,133.5C 470.573,132.531 472.739,131.865 475,131.5C 477.687,132.025 480.52,132.025 483.5,131.5 Z"/></g>
<g><path style="opacity:0.582" fill="#222223" d="M 477.5,164.5 C 478.542,165.791 479.708,165.791 481,164.5C 481.667,166.167 481.667,167.833 481,169.5C 477.637,173.877 474.637,178.544 472,183.5C 470.556,185.155 468.722,185.822 466.5,185.5C 467.15,183.565 467.483,181.565 467.5,179.5C 469.767,178.577 472.1,177.744 474.5,177C 470.5,177.333 466.5,177.667 462.5,178C 464.353,175.429 466.019,172.762 467.5,170C 470.362,169.73 473.028,168.896 475.5,167.5C 473.576,167.433 471.576,167.1 469.5,166.5C 470.246,165.264 470.579,163.93 470.5,162.5C 472.054,161.086 473.388,159.419 474.5,157.5C 476.018,159.621 477.018,161.954 477.5,164.5 Z"/></g>
<g><path style="opacity:0.686" fill="#464b4c" d="M 470.5,162.5 C 468.732,164.508 467.066,166.674 465.5,169C 462.21,169.253 459.21,170.253 456.5,172C 458.931,172.252 461.265,171.752 463.5,170.5C 463.833,170.833 464.167,171.167 464.5,171.5C 463.388,173.419 462.054,175.086 460.5,176.5C 459.322,175.001 457.655,174.001 455.5,173.5C 454.254,169.378 455.921,167.044 460.5,166.5C 461.137,164.697 462.303,163.364 464,162.5C 464.595,161.101 464.428,159.768 463.5,158.5C 464.833,157.833 466.167,157.167 467.5,156.5C 468.185,154.453 469.351,152.786 471,151.5C 472.732,151.734 473.566,152.734 473.5,154.5C 472.49,157.183 471.49,159.849 470.5,162.5 Z"/></g>
<g><path style="opacity:0.629" fill="#303131" d="M 435.5,168.5 C 436.472,169.399 437.138,170.566 437.5,172C 437.057,173.825 436.723,175.658 436.5,177.5C 435.878,179.335 434.544,180.502 432.5,181C 430.129,181.735 427.795,182.568 425.5,183.5C 425.167,183.167 424.833,182.833 424.5,182.5C 426.353,178.952 428.019,175.285 429.5,171.5C 431.32,170.117 433.32,169.117 435.5,168.5 Z"/></g>
<g><path style="opacity:0.571" fill="#1c1d1e" d="M 485.5,169.5 C 485.468,172.076 486.135,174.409 487.5,176.5C 487.158,177.338 486.492,177.672 485.5,177.5C 483.884,176.011 481.884,175.011 479.5,174.5C 481,172.167 482.5,169.833 484,167.5C 484.278,168.416 484.778,169.082 485.5,169.5 Z"/></g>
<g><path style="opacity:0.754" fill="#4a5456" d="M 416.5,165.5 C 417.449,167.777 418.782,169.777 420.5,171.5C 419.4,172.558 418.066,173.392 416.5,174C 417.793,174.49 419.127,174.657 420.5,174.5C 420.19,177.713 420.523,180.713 421.5,183.5C 421.027,184.906 420.027,185.573 418.5,185.5C 417.442,184.4 416.608,183.066 416,181.5C 415.252,176.519 414.752,171.519 414.5,166.5C 415.167,166.167 415.833,165.833 416.5,165.5 Z"/></g>
<g><path style="opacity:0.592" fill="#292b2a" d="M 421.5,183.5 C 420.523,180.713 420.19,177.713 420.5,174.5C 422.527,172.912 424.861,172.412 427.5,173C 425.109,176.283 423.109,179.783 421.5,183.5 Z"/></g>
<g><path style="opacity:0.597" fill="#282a2a" d="M 485.5,177.5 C 484.404,180.386 482.404,182.386 479.5,183.5C 477.712,183.785 476.045,183.452 474.5,182.5C 475.658,179.829 477.491,177.829 480,176.5C 481.766,177.233 483.599,177.567 485.5,177.5 Z"/></g>
<g><path style="opacity:0.769" fill="#656f70" d="M 470.5,162.5 C 470.579,163.93 470.246,165.264 469.5,166.5C 471.576,167.1 473.576,167.433 475.5,167.5C 473.028,168.896 470.362,169.73 467.5,170C 466.019,172.762 464.353,175.429 462.5,178C 466.5,177.667 470.5,177.333 474.5,177C 472.1,177.744 469.767,178.577 467.5,179.5C 465.421,179.971 463.421,180.637 461.5,181.5C 460.721,180.08 459.721,179.246 458.5,179C 458.639,177.699 459.305,176.866 460.5,176.5C 462.054,175.086 463.388,173.419 464.5,171.5C 464.167,171.167 463.833,170.833 463.5,170.5C 461.265,171.752 458.931,172.252 456.5,172C 459.21,170.253 462.21,169.253 465.5,169C 467.066,166.674 468.732,164.508 470.5,162.5 Z"/></g>
<g><path style="opacity:1" fill="#50a1bc" d="M 493.5,167.5 C 493.5,168.833 493.5,170.167 493.5,171.5C 491.773,174.602 489.773,177.602 487.5,180.5C 485.5,181.976 483.833,183.809 482.5,186C 480.783,187.559 478.783,188.392 476.5,188.5C 477.5,187.167 478.5,185.833 479.5,184.5C 479.5,184.167 479.5,183.833 479.5,183.5C 482.404,182.386 484.404,180.386 485.5,177.5C 486.492,177.672 487.158,177.338 487.5,176.5C 489.5,173.5 491.5,170.5 493.5,167.5 Z"/></g>
<g><path style="opacity:0.588" fill="#252626" d="M 439.5,180.5 C 439.5,181.5 439.5,182.5 439.5,183.5C 437.928,190.299 433.594,193.133 426.5,192C 421.012,188.766 421.345,186.1 427.5,184C 431.423,182.537 435.423,181.37 439.5,180.5 Z"/></g>
<g><path style="opacity:1" fill="#32768a" d="M 446.5,173.5 C 448.833,173.5 451.167,173.5 453.5,173.5C 453.5,174.833 453.5,176.167 453.5,177.5C 449.509,176.872 448.176,178.205 449.5,181.5C 449.083,185.074 447.083,187.407 443.5,188.5C 442.833,187.833 442.167,187.167 441.5,186.5C 441.068,185.29 440.401,184.29 439.5,183.5C 439.5,182.5 439.5,181.5 439.5,180.5C 438.5,179.5 437.5,178.5 436.5,177.5C 436.723,175.658 437.057,173.825 437.5,172C 437.138,170.566 436.472,169.399 435.5,168.5C 435.5,167.5 435.5,166.5 435.5,165.5C 437.527,165.338 439.527,165.505 441.5,166C 440.643,166.689 439.977,167.522 439.5,168.5C 441.173,170.523 441.84,172.856 441.5,175.5C 443.554,175.635 445.221,174.968 446.5,173.5 Z"/></g>
<g><path style="opacity:0.58" fill="#282a2b" d="M 479.5,184.5 C 478.5,185.833 477.5,187.167 476.5,188.5C 475.833,188.5 475.167,188.5 474.5,188.5C 470.516,190.021 469.849,189.188 472.5,186C 474.677,184.798 477.011,184.298 479.5,184.5 Z"/></g>
<g><path style="opacity:0.628" fill="#323334" d="M 441.5,186.5 C 442.167,187.167 442.833,187.833 443.5,188.5C 446.203,189.963 449.203,190.796 452.5,191C 448.257,195.869 442.923,197.702 436.5,196.5C 436.167,196.5 435.833,196.5 435.5,196.5C 436.179,192.984 438.179,190.484 441.5,189C 440.226,188.023 440.226,187.189 441.5,186.5 Z"/></g>
<g><path style="opacity:0.784" fill="#5d6567" d="M 485.5,169.5 C 484.778,169.082 484.278,168.416 484,167.5C 482.5,169.833 481,172.167 479.5,174.5C 481.884,175.011 483.884,176.011 485.5,177.5C 483.599,177.567 481.766,177.233 480,176.5C 477.491,177.829 475.658,179.829 474.5,182.5C 476.045,183.452 477.712,183.785 479.5,183.5C 479.5,183.833 479.5,184.167 479.5,184.5C 477.011,184.298 474.677,184.798 472.5,186C 469.849,189.188 470.516,190.021 474.5,188.5C 474.586,189.496 474.252,190.329 473.5,191C 469.519,193.162 465.519,194.995 461.5,196.5C 460.833,196.5 460.167,196.5 459.5,196.5C 462.171,194.066 465.004,191.733 468,189.5C 468.688,188.668 468.521,188.002 467.5,187.5C 462.5,189.667 457.5,191.833 452.5,194C 451.177,194.816 450.511,195.983 450.5,197.5C 445.637,197.819 440.97,197.486 436.5,196.5C 442.923,197.702 448.257,195.869 452.5,191C 449.203,190.796 446.203,189.963 443.5,188.5C 447.083,187.407 449.083,185.074 449.5,181.5C 450.859,180.993 451.859,179.993 452.5,178.5C 453.452,180.045 453.785,181.712 453.5,183.5C 455.216,183.371 456.883,183.038 458.5,182.5C 457.26,185.619 456.093,188.619 455,191.5C 458.965,189.58 462.798,187.58 466.5,185.5C 468.722,185.822 470.556,185.155 472,183.5C 474.637,178.544 477.637,173.877 481,169.5C 481.667,167.833 481.667,166.167 481,164.5C 479.708,165.791 478.542,165.791 477.5,164.5C 479.017,164.489 480.184,163.823 481,162.5C 480.761,158.816 482.261,156.149 485.5,154.5C 486.247,158.143 485.58,161.643 483.5,165C 484.707,166.3 485.374,167.8 485.5,169.5 Z"/></g>
<g><path style="opacity:0.616" fill="#3c3d3d" d="M 467.5,179.5 C 467.483,181.565 467.15,183.565 466.5,185.5C 462.798,187.58 458.965,189.58 455,191.5C 456.093,188.619 457.26,185.619 458.5,182.5C 459.391,181.89 460.391,181.557 461.5,181.5C 463.421,180.637 465.421,179.971 467.5,179.5 Z"/></g>
<g><path style="opacity:0.617" fill="#2f3131" d="M 459.5,196.5 C 456.57,197.299 453.57,197.632 450.5,197.5C 450.511,195.983 451.177,194.816 452.5,194C 457.5,191.833 462.5,189.667 467.5,187.5C 468.521,188.002 468.688,188.668 468,189.5C 465.004,191.733 462.171,194.066 459.5,196.5 Z"/></g>
<g><path style="opacity:0.251" fill="#1f3c47" d="M 351.5,193.5 C 351.389,194.117 351.056,194.617 350.5,195C 348.527,195.495 346.527,195.662 344.5,195.5C 346.657,194.593 348.99,193.927 351.5,193.5 Z"/></g>
<g><path style="opacity:1" fill="#b9dee3" d="M 487.5,180.5 C 486.644,183.574 485.31,186.408 483.5,189C 475.591,192.058 468.258,196.224 461.5,201.5C 461.315,199.684 461.315,198.017 461.5,196.5C 465.519,194.995 469.519,193.162 473.5,191C 474.252,190.329 474.586,189.496 474.5,188.5C 475.167,188.5 475.833,188.5 476.5,188.5C 478.783,188.392 480.783,187.559 482.5,186C 483.833,183.809 485.5,181.976 487.5,180.5 Z"/></g>
<g><path style="opacity:1" fill="#bfd4d6" d="M 432.5,195.5 C 433.609,195.557 434.609,195.89 435.5,196.5C 435.833,196.5 436.167,196.5 436.5,196.5C 440.97,197.486 445.637,197.819 450.5,197.5C 453.57,197.632 456.57,197.299 459.5,196.5C 456.76,198.053 454.093,199.886 451.5,202C 449.866,202.494 448.199,202.66 446.5,202.5C 446.33,201.178 446.663,200.011 447.5,199C 446.5,198.833 445.5,198.667 444.5,198.5C 440.962,200.054 437.295,201.054 433.5,201.5C 433.675,199.379 433.341,197.379 432.5,195.5 Z"/></g>
<g><path style="opacity:0.168" fill="#030303" d="M 286.5,222.5 C 288.966,221.366 291.633,221.199 294.5,222C 296.667,222.833 298.167,224.333 299,226.5C 299.333,256.833 299.667,287.167 300,317.5C 314.759,318.325 329.592,318.825 344.5,319C 348.238,320.399 349.904,323.066 349.5,327C 349.902,331.2 348.235,334.2 344.5,336C 324.5,336.667 304.5,336.667 284.5,336C 281.906,334.661 280.406,332.494 280,329.5C 279.5,320.173 279.334,310.839 279.5,301.5C 280.179,310.568 280.845,319.735 281.5,329C 301.284,328.868 320.951,328.368 340.5,327.5C 340.993,325.194 341.326,322.861 341.5,320.5C 324.53,320.425 307.53,320.425 290.5,320.5C 290.667,288.165 290.5,255.832 290,223.5C 288.989,222.663 287.822,222.33 286.5,222.5 Z"/></g>
<g><path style="opacity:0.158" fill="#030303" d="M 360.5,329.5 C 362.099,329.768 363.432,329.434 364.5,328.5C 364.833,328.5 365.167,328.5 365.5,328.5C 383.167,328.5 400.833,328.5 418.5,328.5C 418.986,325.618 418.986,322.952 418.5,320.5C 402.647,319.221 386.647,319.221 370.5,320.5C 370.5,306.833 370.5,293.167 370.5,279.5C 385.5,279.5 400.5,279.5 415.5,279.5C 416.136,276.894 416.136,274.394 415.5,272C 400.504,271.5 385.504,271.333 370.5,271.5C 370.5,258.167 370.5,244.833 370.5,231.5C 386.167,231.5 401.833,231.5 417.5,231.5C 417.802,228.941 417.468,226.607 416.5,224.5C 398.674,223.503 380.674,223.17 362.5,223.5C 362.918,222.778 363.584,222.278 364.5,222C 383.498,221.944 402.498,222.278 421.5,223C 426.155,225.897 427.655,230.063 426,235.5C 424.833,236.667 423.667,237.833 422.5,239C 408.5,239.333 394.5,239.667 380.5,240C 379.514,249.75 379.181,259.584 379.5,269.5C 393.152,270.196 406.819,270.696 420.5,271C 421.416,271.374 422.25,271.874 423,272.5C 424.483,275.702 424.817,279.036 424,282.5C 423.167,284.667 421.667,286.167 419.5,287C 406.258,287.176 393.092,287.676 380,288.5C 379.333,298.167 379.333,307.833 380,317.5C 394.425,318.325 408.925,318.825 423.5,319C 427.328,322.264 428.495,326.431 427,331.5C 426.065,334.102 424.232,335.602 421.5,336C 402.167,336.667 382.833,336.667 363.5,336C 361.081,334.491 360.081,332.325 360.5,329.5 Z"/></g>
<g><path style="opacity:0.18" fill="#020202" d="M 245.5,223.5 C 248.64,222.359 251.973,222.192 255.5,223C 257.049,224.214 258.215,225.714 259,227.5C 259.667,262.167 259.667,296.833 259,331.5C 258.167,333.667 256.667,335.167 254.5,336C 250.1,336.978 245.933,336.478 242,334.5C 240.872,332.655 240.372,330.655 240.5,328.5C 240.833,328.5 241.167,328.5 241.5,328.5C 242.5,328.5 243.5,328.5 244.5,328.5C 246.5,328.5 248.5,328.5 250.5,328.5C 250.5,293.5 250.5,258.5 250.5,223.5C 248.833,223.5 247.167,223.5 245.5,223.5 Z"/></g>
<g><path style="opacity:0.341" fill="#969696" d="M 471.5,221.5 C 475.532,222.082 479.199,223.416 482.5,225.5C 479.479,224.995 476.479,224.328 473.5,223.5C 472.287,223.253 471.62,222.586 471.5,221.5 Z"/></g>
<g><path style="opacity:0.994" fill="#f1f1f1" d="M 471.5,221.5 C 471.62,222.586 472.287,223.253 473.5,223.5C 476.479,224.328 479.479,224.995 482.5,225.5C 488.013,227.716 489.68,231.716 487.5,237.5C 483.833,235.667 480.167,233.833 476.5,232C 472.679,231.406 468.845,230.906 465,230.5C 457.082,230.294 450.748,233.294 446,239.5C 443.09,248.441 445.257,255.941 452.5,262C 461.167,267.333 469.833,272.667 478.5,278C 482.333,280.5 485.5,283.667 488,287.5C 494.908,300.474 493.408,312.308 483.5,323C 467.022,332.208 451.022,331.374 435.5,320.5C 435.337,318.143 435.503,315.81 436,313.5C 437.011,312.663 438.178,312.33 439.5,312.5C 448.67,320.001 459.003,322.335 470.5,319.5C 478.189,317.476 482.189,312.476 482.5,304.5C 482.905,296.722 479.905,290.555 473.5,286C 464.5,280.333 455.5,274.667 446.5,269C 444,266.5 441.5,264 439,261.5C 437.704,258.429 436.538,255.429 435.5,252.5C 434.599,237.409 441.266,227.409 455.5,222.5C 460.797,221.725 466.13,221.392 471.5,221.5 Z"/></g>
<g><path style="opacity:0.995" fill="#f7f7f7" d="M 114.5,223.5 C 118.273,223.263 121.94,223.763 125.5,225C 137.319,240.645 149.652,255.812 162.5,270.5C 164.326,268.853 165.66,266.853 166.5,264.5C 177.166,251.664 187.666,238.664 198,225.5C 199.584,224.139 201.418,223.472 203.5,223.5C 205.792,223.244 207.959,223.577 210,224.5C 210.5,259.165 210.667,293.832 210.5,328.5C 207.281,328.906 204.281,328.906 201.5,328.5C 201.5,300.5 201.5,272.5 201.5,244.5C 201.808,242.076 201.474,239.743 200.5,237.5C 187.864,253.142 175.197,268.809 162.5,284.5C 161.252,283.96 160.085,283.293 159,282.5C 148.097,266.928 136.431,251.928 124,237.5C 123.5,267.832 123.333,298.165 123.5,328.5C 120.304,329.112 117.304,329.112 114.5,328.5C 114.832,293.663 114.498,258.996 113.5,224.5C 112.443,223.794 112.776,223.461 114.5,223.5 Z"/></g>
<g><path style="opacity:0.993" fill="#fefefe" d="M 242.5,224.5 C 244.833,224.5 247.167,224.5 249.5,224.5C 249.5,258.833 249.5,293.167 249.5,327.5C 247.585,327.216 245.919,327.549 244.5,328.5C 243.5,328.5 242.5,328.5 241.5,328.5C 241.5,294.167 241.5,259.833 241.5,225.5C 241.5,224.833 241.833,224.5 242.5,224.5 Z"/></g>
<g><path style="opacity:0.988" fill="#fbfafb" d="M 286.5,222.5 C 287.822,222.33 288.989,222.663 290,223.5C 290.5,255.832 290.667,288.165 290.5,320.5C 307.53,320.425 324.53,320.425 341.5,320.5C 341.326,322.861 340.993,325.194 340.5,327.5C 320.833,327.5 301.167,327.5 281.5,327.5C 281.832,293.329 281.498,259.329 280.5,225.5C 281.911,223.461 283.911,222.461 286.5,222.5 Z"/></g>
<g><path style="opacity:0.99" fill="#f7f7f7" d="M 416.5,224.5 C 417.468,226.607 417.802,228.941 417.5,231.5C 401.833,231.5 386.167,231.5 370.5,231.5C 370.5,244.833 370.5,258.167 370.5,271.5C 385.504,271.333 400.504,271.5 415.5,272C 416.136,274.394 416.136,276.894 415.5,279.5C 400.5,279.5 385.5,279.5 370.5,279.5C 370.5,293.167 370.5,306.833 370.5,320.5C 386.647,319.221 402.647,319.221 418.5,320.5C 417.781,322.764 417.448,325.097 417.5,327.5C 399.992,327.17 382.659,327.503 365.5,328.5C 365.167,328.5 364.833,328.5 364.5,328.5C 363.5,328.5 362.5,328.5 361.5,328.5C 361.5,293.833 361.5,259.167 361.5,224.5C 379.833,224.5 398.167,224.5 416.5,224.5 Z"/></g>
<g><path style="opacity:0.245" fill="#8f8e8e" d="M 362.5,223.5 C 380.674,223.17 398.674,223.503 416.5,224.5C 398.167,224.5 379.833,224.5 361.5,224.5C 361.5,259.167 361.5,293.833 361.5,328.5C 362.5,328.5 363.5,328.5 364.5,328.5C 363.432,329.434 362.099,329.768 360.5,329.5C 359.46,295.916 359.294,262.249 360,228.5C 360.05,226.256 360.883,224.589 362.5,223.5 Z"/></g>
<g><path style="opacity:0.192" fill="#040404" d="M 201.5,244.5 C 200.097,247.909 199.43,251.575 199.5,255.5C 189.637,267.355 179.637,279.188 169.5,291C 164.655,292.163 160.821,290.663 158,286.5C 150.405,275.735 142.238,265.402 133.5,255.5C 132.667,280.827 132.167,306.16 132,331.5C 131.167,333.667 129.667,335.167 127.5,336C 123.1,336.978 118.933,336.478 115,334.5C 113.872,332.655 113.372,330.655 113.5,328.5C 113.833,328.5 114.167,328.5 114.5,328.5C 117.304,329.112 120.304,329.112 123.5,328.5C 123.333,298.165 123.5,267.832 124,237.5C 136.431,251.928 148.097,266.928 159,282.5C 160.085,283.293 161.252,283.96 162.5,284.5C 175.197,268.809 187.864,253.142 200.5,237.5C 201.474,239.743 201.808,242.076 201.5,244.5 Z"/></g>
<g><path style="opacity:0.256" fill="#807f80" d="M 113.5,224.5 C 114.498,258.996 114.832,293.663 114.5,328.5C 114.167,328.5 113.833,328.5 113.5,328.5C 112.177,293.961 112.177,259.294 113.5,224.5 Z"/></g>
<g><path style="opacity:0.295" fill="#888888" d="M 241.5,225.5 C 241.5,259.833 241.5,294.167 241.5,328.5C 241.167,328.5 240.833,328.5 240.5,328.5C 239.336,296.336 239.169,264.003 240,231.5C 240.191,229.292 240.691,227.292 241.5,225.5 Z"/></g>
<g><path style="opacity:0.05" fill="#080808" d="M 435.5,252.5 C 436.538,255.429 437.704,258.429 439,261.5C 441.5,264 444,266.5 446.5,269C 455.5,274.667 464.5,280.333 473.5,286C 479.905,290.555 482.905,296.722 482.5,304.5C 481.071,300.498 478.738,296.998 475.5,294C 467.766,288.604 459.766,283.604 451.5,279C 441.67,272.834 436.337,264 435.5,252.5 Z"/></g>
<g><path style="opacity:0.196" fill="#999999" d="M 280.5,225.5 C 281.498,259.329 281.832,293.329 281.5,327.5C 301.167,327.5 320.833,327.5 340.5,327.5C 320.951,328.368 301.284,328.868 281.5,329C 280.845,319.735 280.179,310.568 279.5,301.5C 279.204,276.141 279.537,250.808 280.5,225.5 Z"/></g>
<g><path style="opacity:0.518" fill="#959595" d="M 165.5,264.5 C 165.833,264.5 166.167,264.5 166.5,264.5C 165.66,266.853 164.326,268.853 162.5,270.5C 162.975,268.216 163.975,266.216 165.5,264.5 Z"/></g>
<g><path style="opacity:0.906" fill="#dfdede" d="M 242.5,224.5 C 243.209,223.596 244.209,223.263 245.5,223.5C 247.167,223.5 248.833,223.5 250.5,223.5C 250.5,258.5 250.5,293.5 250.5,328.5C 248.5,328.5 246.5,328.5 244.5,328.5C 245.919,327.549 247.585,327.216 249.5,327.5C 249.5,293.167 249.5,258.833 249.5,224.5C 247.167,224.5 244.833,224.5 242.5,224.5 Z"/></g>
<g><path style="opacity:0.202" fill="#888788" d="M 201.5,244.5 C 201.5,272.5 201.5,300.5 201.5,328.5C 201.167,328.5 200.833,328.5 200.5,328.5C 199.51,304.241 199.177,279.908 199.5,255.5C 199.43,251.575 200.097,247.909 201.5,244.5 Z"/></g>
<g><path style="opacity:0.021" fill="#060606" d="M 439.5,312.5 C 441.288,311.378 443.288,311.211 445.5,312C 449.5,314 453.5,316 457.5,318C 461.751,319.195 466.085,319.695 470.5,319.5C 459.003,322.335 448.67,320.001 439.5,312.5 Z"/></g>
<g><path style="opacity:0.694" fill="#919191" d="M 418.5,320.5 C 418.986,322.952 418.986,325.618 418.5,328.5C 400.833,328.5 383.167,328.5 365.5,328.5C 382.659,327.503 399.992,327.17 417.5,327.5C 417.448,325.097 417.781,322.764 418.5,320.5 Z"/></g>
</svg>
