<?xml version="1.0" encoding="UTF-8"?>
<!DOCTYPE svg PUBLIC "-//W3C//DTD SVG 1.1//EN" "http://www.w3.org/Graphics/SVG/1.1/DTD/svg11.dtd">
<svg xmlns="http://www.w3.org/2000/svg" version="1.1" width="602px" height="414px" style="shape-rendering:geometricPrecision; text-rendering:geometricPrecision; image-rendering:optimizeQuality; fill-rule:evenodd; clip-rule:evenodd" xmlns:xlink="http://www.w3.org/1999/xlink">
<g><path style="opacity:0.212" fill="#010101" d="M 115.5,81.5 C 122.655,80.3448 129.988,80.1782 137.5,81C 139.333,81.5 140.5,82.6667 141,84.5C 141.667,129.167 141.667,173.833 141,218.5C 139.199,221.785 136.365,223.619 132.5,224C 143.334,237.664 154.334,251.164 165.5,264.5C 165.373,268.246 163.706,269.579 160.5,268.5C 149.152,253.496 137.485,238.829 125.5,224.5C 122.375,223.521 119.042,223.187 115.5,223.5C 113.957,221.072 112.957,218.406 112.5,215.5C 119.167,215.5 125.833,215.5 132.5,215.5C 132.177,171.124 132.511,126.791 133.5,82.5C 127.69,81.5104 121.69,81.1771 115.5,81.5 Z"/></g>
<g><path style="opacity:0.061" fill="#030506" d="M 212.5,83.5 C 240.491,79.1646 263.158,88.1646 280.5,110.5C 279.702,112.966 278.369,114.966 276.5,116.5C 271.194,106.862 263.861,99.195 254.5,93.5C 254.167,93.5 253.833,93.5 253.5,93.5C 253.631,92.6236 253.298,91.9569 252.5,91.5C 248.246,89.536 243.912,87.8693 239.5,86.5C 238.833,86.5 238.167,86.5 237.5,86.5C 235.438,85.2237 233.104,84.3903 230.5,84C 224.509,83.5005 218.509,83.3338 212.5,83.5 Z"/></g>
<g><path style="opacity:0.066" fill="#010101" d="M 394.5,111.5 C 393.56,113.612 392.394,115.612 391,117.5C 386.179,110.998 381.013,104.832 375.5,99C 368.235,94.117 360.735,89.617 353,85.5C 352.107,86.0814 351.107,86.4148 350,86.5C 341.937,84.7461 333.77,84.0794 325.5,84.5C 353.712,79.9084 376.712,88.9084 394.5,111.5 Z"/></g>
<g><path style="opacity:0.207" fill="#010202" d="M 435.5,322.5 C 436.167,322.5 436.833,322.5 437.5,322.5C 440.837,324.835 444.504,326.669 448.5,328C 456.585,329.176 464.585,329.676 472.5,329.5C 476.415,327.001 480.415,324.667 484.5,322.5C 497.007,304.928 494.674,289.428 477.5,276C 467.613,270.763 458.279,264.763 449.5,258C 444.733,251.219 444.233,244.052 448,236.5C 451.705,235.064 455.205,233.231 458.5,231C 463.167,230.333 467.833,230.333 472.5,231C 478.028,233.205 483.361,235.705 488.5,238.5C 488.665,235.15 488.498,231.817 488,228.5C 477.64,221.434 466.473,219.767 454.5,223.5C 430.043,222.688 410.21,212.688 395,193.5C 372.376,220.814 344.21,228.647 310.5,217C 298.958,211.805 289.125,204.305 281,194.5C 264.529,214.978 243.029,224.478 216.5,223C 218.886,224.887 220.053,227.387 220,230.5C 220.667,263.167 220.667,295.833 220,328.5C 219.566,334.723 216.233,337.39 210,336.5C 203.237,337.234 199.737,334.234 199.5,327.5C 200.222,328.551 201.222,329.218 202.5,329.5C 205.448,329.777 208.281,329.444 211,328.5C 211.5,294.168 211.667,259.835 211.5,225.5C 209.012,223.612 206.012,222.945 202.5,223.5C 204.277,222.4 206.277,221.566 208.5,221C 183.251,214.58 166.584,199.08 158.5,174.5C 164.161,184.995 171.494,194.162 180.5,202C 196.177,213.463 213.51,216.963 232.5,212.5C 233.554,212.68 234.554,213.013 235.5,213.5C 240.923,211.418 246.257,209.251 251.5,207C 261.771,200.56 270.104,192.393 276.5,182.5C 277.167,182.833 277.833,183.167 278.5,183.5C 279.272,184.694 280.272,185.694 281.5,186.5C 281.897,190.565 283.897,193.565 287.5,195.5C 288.585,197.587 290.251,198.92 292.5,199.5C 295.678,203.336 299.678,206.002 304.5,207.5C 306.509,209.065 308.843,210.065 311.5,210.5C 345.136,219.777 371.47,210.11 390.5,181.5C 402.689,202.346 420.856,213.346 445,214.5C 473.234,214.888 493.568,202.555 506,177.5C 512.069,165.201 514.069,152.201 512,138.5C 502.534,101.302 478.367,83.3019 439.5,84.5C 473.181,79.9243 498.348,92.5909 515,122.5C 528.122,156.511 520.955,185.345 493.5,209C 486.893,213.424 479.893,217.091 472.5,220C 479.535,220.79 486.202,222.79 492.5,226C 497.72,230.916 498.887,236.75 496,243.5C 494.562,244.718 492.895,245.385 491,245.5C 486.455,243.812 481.955,241.979 477.5,240C 472.5,239.333 467.5,239.333 462.5,240C 455.082,242.336 452.582,247.169 455,254.5C 456.458,256.96 458.291,259.127 460.5,261C 469.167,266.333 477.833,271.667 486.5,277C 501.213,289.019 505.047,303.853 498,321.5C 488.418,335.361 475.252,340.528 458.5,337C 451.189,335.897 444.522,333.231 438.5,329C 436.549,327.266 435.549,325.099 435.5,322.5 Z"/></g>
<g><path style="opacity:0.983" fill="#414141" d="M 133.5,82.5 C 132.511,126.791 132.177,171.124 132.5,215.5C 125.833,215.5 119.167,215.5 112.5,215.5C 112.5,182.5 112.5,149.5 112.5,116.5C 112.818,112.067 112.818,107.734 112.5,103.5C 108.565,106.649 104.231,109.149 99.5,111C 98.4678,113.874 96.4678,115.374 93.5,115.5C 93.3337,108.492 93.5004,101.492 94,94.5C 95.1127,93.695 96.2794,93.0283 97.5,92.5C 97.4346,92.9382 97.6012,93.2716 98,93.5C 99.0674,92.8095 100.234,92.3095 101.5,92C 102.364,90.3035 103.697,89.1368 105.5,88.5C 108.501,90.77 110.334,89.77 111,85.5C 111.333,86.1667 111.667,86.8333 112,87.5C 113.512,85.0426 114.846,85.0426 116,87.5C 116.54,85.8654 116.04,84.5321 114.5,83.5C 120.798,82.5037 127.132,82.1703 133.5,82.5 Z"/></g>
<g><path style="opacity:0.994" fill="#3c3d3d" d="M 325.5,84.5 C 333.77,84.0794 341.937,84.7461 350,86.5C 351.107,86.4148 352.107,86.0814 353,85.5C 360.735,89.617 368.235,94.117 375.5,99C 381.013,104.832 386.179,110.998 391,117.5C 392.394,115.612 393.56,113.612 394.5,111.5C 405.701,96.4071 420.701,87.4071 439.5,84.5C 478.367,83.3019 502.534,101.302 512,138.5C 514.069,152.201 512.069,165.201 506,177.5C 493.568,202.555 473.234,214.888 445,214.5C 420.856,213.346 402.689,202.346 390.5,181.5C 390.167,179.5 389.833,177.5 389.5,175.5C 387.621,168.088 385.621,160.754 383.5,153.5C 383.785,151.712 383.452,150.045 382.5,148.5C 381.817,148.863 381.15,149.196 380.5,149.5C 380.037,146.518 379.704,143.518 379.5,140.5C 379.187,135.987 378.021,131.654 376,127.5C 361.774,104.628 341.607,97.1284 315.5,105C 304.391,109.944 296.057,117.778 290.5,128.5C 288.455,134.202 286.788,139.868 285.5,145.5C 284.489,135.095 281.489,125.428 276.5,116.5C 278.369,114.966 279.702,112.966 280.5,110.5C 292.181,96.2564 307.181,87.5897 325.5,84.5 Z"/></g>
<g><path style="opacity:0.886" fill="#545454" d="M 115.5,81.5 C 121.69,81.1771 127.69,81.5104 133.5,82.5C 127.132,82.1703 120.798,82.5037 114.5,83.5C 116.04,84.5321 116.54,85.8654 116,87.5C 114.846,85.0426 113.512,85.0426 112,87.5C 111.667,86.8333 111.333,86.1667 111,85.5C 110.334,89.77 108.501,90.77 105.5,88.5C 103.697,89.1368 102.364,90.3035 101.5,92C 100.234,92.3095 99.0674,92.8095 98,93.5C 97.6012,93.2716 97.4346,92.9382 97.5,92.5C 101.098,89.6867 104.765,86.8533 108.5,84C 110.65,82.5886 112.984,81.7553 115.5,81.5 Z"/></g>
<g><path style="opacity:1" fill="#3fa5cb" d="M 212.5,83.5 C 218.509,83.3338 224.509,83.5005 230.5,84C 233.104,84.3903 235.438,85.2237 237.5,86.5C 221.953,85.3425 206.619,86.6758 191.5,90.5C 197.937,86.7986 204.937,84.4653 212.5,83.5 Z"/></g>
<g><path style="opacity:0.961" fill="#3388a5" d="M 239.5,86.5 C 243.912,87.8693 248.246,89.536 252.5,91.5C 253.298,91.9569 253.631,92.6236 253.5,93.5C 249.098,91.9841 244.765,90.3174 240.5,88.5C 240.137,87.8165 239.804,87.1499 239.5,86.5 Z"/></g>
<g><path style="opacity:1" fill="#3cadda" d="M 191.5,90.5 C 189.573,93.4518 186.906,95.6185 183.5,97C 185.863,97.5885 186.863,99.0885 186.5,101.5C 184.269,100.376 181.936,99.8762 179.5,100C 177.548,102.737 175.048,104.904 172,106.5C 171.376,108.464 171.876,110.131 173.5,111.5C 172.117,114.076 171.283,113.742 171,110.5C 168.535,112.055 168.035,114.055 169.5,116.5C 166.97,115.938 164.637,116.605 162.5,118.5C 168.89,105.777 178.556,96.4438 191.5,90.5 Z"/></g>
<g><path style="opacity:0.218" fill="#020404" d="M 234.5,103.5 C 244.508,107.175 252.841,113.175 259.5,121.5C 264.187,129.202 266.853,137.535 267.5,146.5C 258.568,115.861 238.568,104.695 207.5,113C 186.57,124.028 178.403,141.195 183,164.5C 191.106,186.48 206.939,196.814 230.5,195.5C 203.451,199.664 184.617,188.997 174,163.5C 172.988,157.204 172.488,150.871 172.5,144.5C 175.176,123.503 186.51,109.836 206.5,103.5C 215.833,100.833 225.167,100.833 234.5,103.5 Z"/></g>
<g><path style="opacity:0.221" fill="#020203" d="M 379.5,140.5 C 368.899,115.365 350.232,105.865 323.5,112C 301.649,121.866 292.482,138.699 296,162.5C 302.681,183.002 316.848,194.002 338.5,195.5C 332.302,196.632 325.969,196.465 319.5,195C 313.03,192.6 307.03,189.433 301.5,185.5C 294.922,178.699 290.088,170.699 287,161.5C 286.17,156.192 285.67,150.859 285.5,145.5C 286.788,139.868 288.455,134.202 290.5,128.5C 296.057,117.778 304.391,109.944 315.5,105C 341.607,97.1284 361.774,104.628 376,127.5C 378.021,131.654 379.187,135.987 379.5,140.5 Z"/></g>
<g><path style="opacity:0.379" fill="#020404" d="M 450.5,101.5 C 452.806,101.993 455.139,102.326 457.5,102.5C 457.5,103.833 457.5,105.167 457.5,106.5C 458.66,108.203 457.993,108.869 455.5,108.5C 452.616,105.657 449.283,104.99 445.5,106.5C 445.119,104.058 445.786,103.391 447.5,104.5C 448.548,103.452 449.548,102.452 450.5,101.5 Z"/></g>
<g><path style="opacity:0.388" fill="#080d0f" d="M 443.5,105.5 C 442.406,107.359 441.573,109.359 441,111.5C 438.5,112.667 436.667,114.5 435.5,117C 431.959,117.027 428.959,118.194 426.5,120.5C 425.893,120.376 425.56,120.043 425.5,119.5C 426.345,118.329 427.011,116.995 427.5,115.5C 429.727,114.599 430.727,112.933 430.5,110.5C 430.5,109.833 430.5,109.167 430.5,108.5C 432.906,106.087 435.572,104.087 438.5,102.5C 440.512,101.986 442.512,101.82 444.5,102C 443.663,103.011 443.33,104.178 443.5,105.5 Z"/></g>
<g><path style="opacity:0.242" fill="#020202" d="M 112.5,116.5 C 108.439,118.275 104.273,119.942 100,121.5C 96.0526,121.385 93.886,119.385 93.5,115.5C 96.4678,115.374 98.4678,113.874 99.5,111C 104.231,109.149 108.565,106.649 112.5,103.5C 112.818,107.734 112.818,112.067 112.5,116.5 Z"/></g>
<g><path style="opacity:0.69" fill="#287d9a" d="M 461.5,106.5 C 460.732,105.737 460.232,104.737 460,103.5C 458.967,106.217 459.8,108.051 462.5,109C 459.961,109.796 457.628,109.629 455.5,108.5C 457.993,108.869 458.66,108.203 457.5,106.5C 458.29,105.391 458.79,104.058 459,102.5C 460.183,101.269 461.349,101.269 462.5,102.5C 461.754,103.736 461.421,105.07 461.5,106.5 Z"/></g>
<g><path style="opacity:1" fill="#20a0cf" d="M 438.5,102.5 C 435.572,104.087 432.906,106.087 430.5,108.5C 428.25,109.13 426.25,110.13 424.5,111.5C 421.872,113.126 419.539,115.126 417.5,117.5C 416.659,116.074 415.659,114.74 414.5,113.5C 416.63,111.873 418.63,110.04 420.5,108C 424.615,106.777 428.282,104.777 431.5,102C 434.039,101.204 436.372,101.371 438.5,102.5 Z"/></g>
<g><path style="opacity:0.959" fill="#31a6ce" d="M 461.5,106.5 C 462.458,106.953 463.292,107.619 464,108.5C 464.607,106.257 465.94,104.59 468,103.5C 470.49,104.984 472.99,106.484 475.5,108C 476.793,108.49 478.127,108.657 479.5,108.5C 481.025,111.703 483.358,114.37 486.5,116.5C 487.931,119.039 489.597,121.372 491.5,123.5C 494.145,127.432 495.812,131.765 496.5,136.5C 495.624,136.631 494.957,136.298 494.5,135.5C 491.441,129.977 488.775,124.31 486.5,118.5C 485.448,118.649 484.448,118.483 483.5,118C 477.807,110.187 470.807,108.354 462.5,112.5C 465.206,113.793 467.706,113.459 470,111.5C 471.1,112.76 472.267,114.593 473.5,117C 475.112,117.72 476.612,117.554 478,116.5C 479.32,119.139 480.653,121.806 482,124.5C 484.67,125.224 486.17,126.891 486.5,129.5C 484.833,129.5 483.167,129.5 481.5,129.5C 482.598,128.603 482.598,127.77 481.5,127C 478.542,126.432 475.875,125.265 473.5,123.5C 472.614,124.325 472.281,125.325 472.5,126.5C 468.204,126.92 467.537,125.253 470.5,121.5C 469.137,120.107 468.304,118.441 468,116.5C 466.989,117.337 465.822,117.67 464.5,117.5C 464.719,116.325 464.386,115.325 463.5,114.5C 460.719,114.464 457.886,114.798 455,115.5C 453.068,113.822 450.902,113.322 448.5,114C 446.333,115.833 444.167,117.667 442,119.5C 441.517,120.448 441.351,121.448 441.5,122.5C 441.5,123.5 441.5,124.5 441.5,125.5C 440.209,125.263 439.209,125.596 438.5,126.5C 436.108,124.369 433.775,124.702 431.5,127.5C 429.367,125.993 427.033,124.66 424.5,123.5C 423.833,123.5 423.5,123.833 423.5,124.5C 422.167,124.5 421.5,123.833 421.5,122.5C 422.167,121.5 422.833,120.5 423.5,119.5C 424.167,119.5 424.833,119.5 425.5,119.5C 425.56,120.043 425.893,120.376 426.5,120.5C 428.959,118.194 431.959,117.027 435.5,117C 436.667,114.5 438.5,112.667 441,111.5C 441.573,109.359 442.406,107.359 443.5,105.5C 444.167,105.833 444.833,106.167 445.5,106.5C 449.283,104.99 452.616,105.657 455.5,108.5C 457.628,109.629 459.961,109.796 462.5,109C 459.8,108.051 458.967,106.217 460,103.5C 460.232,104.737 460.732,105.737 461.5,106.5 Z"/></g>
<g><path style="opacity:0.992" fill="#2aa2ca" d="M 430.5,110.5 C 430.727,112.933 429.727,114.599 427.5,115.5C 426.094,112.661 427.094,110.994 430.5,110.5 Z"/></g>
<g><path style="opacity:0.477" fill="#091012" d="M 424.5,111.5 C 425.767,114.217 425.434,116.883 423.5,119.5C 422.833,120.5 422.167,121.5 421.5,122.5C 417.485,123.512 413.485,124.512 409.5,125.5C 409.5,125.167 409.5,124.833 409.5,124.5C 410.624,121.331 412.291,118.331 414.5,115.5C 415.167,116.5 415.833,117.5 416.5,118.5C 417.107,118.376 417.44,118.043 417.5,117.5C 419.539,115.126 421.872,113.126 424.5,111.5 Z"/></g>
<g><path style="opacity:0.996" fill="#30b9e7" d="M 496.5,136.5 C 496.5,136.833 496.5,137.167 496.5,137.5C 496.167,140.833 495.833,144.167 495.5,147.5C 494.5,147.5 493.5,147.5 492.5,147.5C 492.5,146.5 492.5,145.5 492.5,144.5C 490.897,144.688 489.563,144.188 488.5,143C 489.784,142.316 490.951,142.483 492,143.5C 492.5,142 493,140.5 493.5,139C 493.095,138.055 492.428,137.388 491.5,137C 491.833,136.667 492.167,136.333 492.5,136C 490.609,134.558 488.609,133.391 486.5,132.5C 485.391,132.443 484.391,132.11 483.5,131.5C 482.833,130.833 482.167,130.167 481.5,129.5C 483.167,129.5 484.833,129.5 486.5,129.5C 486.17,126.891 484.67,125.224 482,124.5C 480.653,121.806 479.32,119.139 478,116.5C 476.612,117.554 475.112,117.72 473.5,117C 472.267,114.593 471.1,112.76 470,111.5C 467.706,113.459 465.206,113.793 462.5,112.5C 470.807,108.354 477.807,110.187 483.5,118C 484.448,118.483 485.448,118.649 486.5,118.5C 488.775,124.31 491.441,129.977 494.5,135.5C 494.957,136.298 495.624,136.631 496.5,136.5 Z"/></g>
<g><path style="opacity:0.596" fill="#2d6b7d" d="M 430.5,108.5 C 430.5,109.167 430.5,109.833 430.5,110.5C 427.094,110.994 426.094,112.661 427.5,115.5C 427.011,116.995 426.345,118.329 425.5,119.5C 424.833,119.5 424.167,119.5 423.5,119.5C 425.434,116.883 425.767,114.217 424.5,111.5C 426.25,110.13 428.25,109.13 430.5,108.5 Z"/></g>
<g><path style="opacity:0.976" fill="#2981a1" d="M 414.5,113.5 C 415.659,114.74 416.659,116.074 417.5,117.5C 417.44,118.043 417.107,118.376 416.5,118.5C 415.833,117.5 415.167,116.5 414.5,115.5C 412.291,118.331 410.624,121.331 409.5,124.5C 409.869,122.007 409.203,121.34 407.5,122.5C 408.694,118.637 411.027,115.637 414.5,113.5 Z"/></g>
<g><path style="opacity:0.808" fill="#2a7187" d="M 447.5,125.5 C 444.57,126.299 441.57,126.632 438.5,126.5C 439.209,125.596 440.209,125.263 441.5,125.5C 441.5,124.5 441.5,123.5 441.5,122.5C 443.167,122.5 444.833,122.5 446.5,122.5C 446.67,121.178 446.337,120.011 445.5,119C 447.134,118.506 448.801,118.34 450.5,118.5C 450.5,120.5 450.5,122.5 450.5,124.5C 449.209,124.263 448.209,124.596 447.5,125.5 Z"/></g>
<g><path style="opacity:0.424" fill="#0e1516" d="M 433.5,120.5 C 434.5,120.5 435.5,120.5 436.5,120.5C 436.539,122.359 435.706,123.692 434,124.5C 433.51,123.207 433.343,121.873 433.5,120.5 Z"/></g>
<g><path style="opacity:0.154" fill="#070b0c" d="M 424.5,123.5 C 425.253,125.88 426.587,127.88 428.5,129.5C 427.9,130.9 426.9,131.9 425.5,132.5C 423.218,133.39 420.885,133.556 418.5,133C 419.708,129.846 421.375,127.013 423.5,124.5C 423.5,123.833 423.833,123.5 424.5,123.5 Z"/></g>
<g><path style="opacity:0.459" fill="#295e71" d="M 424.5,123.5 C 427.033,124.66 429.367,125.993 431.5,127.5C 429.821,127.285 428.821,127.952 428.5,129.5C 426.587,127.88 425.253,125.88 424.5,123.5 Z"/></g>
<g><path style="opacity:0.393" fill="#05080a" d="M 408.5,131.5 C 408.232,129.901 408.566,128.568 409.5,127.5C 412.716,126.97 415.883,126.304 419,125.5C 417.89,129.215 416.057,132.715 413.5,136C 410.883,136.822 408.216,137.322 405.5,137.5C 405.5,136.167 405.5,134.833 405.5,133.5C 407.179,133.715 408.179,133.048 408.5,131.5 Z"/></g>
<g><path style="opacity:0.976" fill="#2ba6ce" d="M 409.5,124.5 C 409.5,124.833 409.5,125.167 409.5,125.5C 409.5,126.167 409.5,126.833 409.5,127.5C 408.566,128.568 408.232,129.901 408.5,131.5C 405.635,132.191 403.468,133.858 402,136.5C 401.536,135.906 401.369,135.239 401.5,134.5C 402.318,129.852 404.318,125.852 407.5,122.5C 409.203,121.34 409.869,122.007 409.5,124.5 Z"/></g>
<g><path style="opacity:0.692" fill="#2f7589" d="M 437.5,131.5 C 437.062,131.565 436.728,131.399 436.5,131C 438.332,130.252 439.999,129.252 441.5,128C 443.473,127.505 445.473,127.338 447.5,127.5C 450.871,127.092 454.538,126.592 458.5,126C 456.068,124.913 456.402,124.413 459.5,124.5C 459.319,121.447 459.152,118.447 459,115.5C 460.609,116.147 462.109,116.98 463.5,118C 462.376,118.249 461.376,118.749 460.5,119.5C 461.833,120.5 461.833,121.5 460.5,122.5C 461.274,123.711 462.107,123.711 463,122.5C 463.667,126.5 464.333,126.5 465,122.5C 465.175,125.157 465.008,127.824 464.5,130.5C 465.552,130.351 466.552,130.517 467.5,131C 465.22,131.212 463.22,132.045 461.5,133.5C 458.242,132.583 454.909,132.249 451.5,132.5C 451.5,133.5 451.5,134.5 451.5,135.5C 447.759,136.401 445.759,135.068 445.5,131.5C 442.833,131.5 440.167,131.5 437.5,131.5 Z"/></g>
<g><path style="opacity:0.146" fill="#0a0e0e" d="M 424.5,137.5 C 423.909,140.884 422.242,143.551 419.5,145.5C 417.135,146.008 414.801,146.675 412.5,147.5C 412.322,140.979 415.655,136.979 422.5,135.5C 423.713,135.747 424.38,136.414 424.5,137.5 Z"/></g>
<g><path style="opacity:0.627" fill="#3da7d0" d="M 161.5,119.5 C 162.343,121.487 163.01,123.654 163.5,126C 162.576,127.811 161.743,127.645 161,125.5C 159.667,129.5 158.333,133.5 157,137.5C 156.501,141.152 156.335,144.818 156.5,148.5C 161.5,148.5 166.5,148.5 171.5,148.5C 165.933,149.804 160.266,149.804 154.5,148.5C 154.488,138.216 156.821,128.549 161.5,119.5 Z"/></g>
<g><path style="opacity:0.706" fill="#1b414c" d="M 433.5,134.5 C 434.586,134.62 435.253,135.287 435.5,136.5C 434.306,138.756 433.306,138.422 432.5,135.5C 433.167,135.5 433.5,135.167 433.5,134.5 Z"/></g>
<g><path style="opacity:0.694" fill="#30798f" d="M 483.5,131.5 C 484.391,132.11 485.391,132.443 486.5,132.5C 485.933,134.03 485.267,135.53 484.5,137C 485.448,137.483 486.448,137.649 487.5,137.5C 487.321,139.606 486.321,141.272 484.5,142.5C 483.833,142.167 483.167,141.833 482.5,141.5C 470.197,143.585 458.197,146.752 446.5,151C 447.938,151.219 449.271,151.719 450.5,152.5C 449.726,153.711 448.893,153.711 448,152.5C 447.333,154.167 447.333,155.833 448,157.5C 448.483,156.552 448.649,155.552 448.5,154.5C 450.429,154.769 452.095,154.269 453.5,153C 452.692,152.692 452.025,152.192 451.5,151.5C 454.284,150.513 456.951,149.68 459.5,149C 457.543,150.746 456.543,152.912 456.5,155.5C 454.076,155.192 451.743,155.526 449.5,156.5C 450.85,157.95 452.516,158.617 454.5,158.5C 453.081,159.451 451.415,159.784 449.5,159.5C 449.5,160.5 449.5,161.5 449.5,162.5C 445.62,162.524 441.62,163.19 437.5,164.5C 436.833,162.167 436.167,159.833 435.5,157.5C 434.448,157.649 433.448,157.483 432.5,157C 436.627,156.123 440.627,154.956 444.5,153.5C 444.094,155.109 444.094,156.443 444.5,157.5C 445.647,155.235 445.814,152.902 445,150.5C 442.903,151.991 440.57,152.991 438,153.5C 437.689,152.258 438.189,151.258 439.5,150.5C 436.914,149.52 434.247,149.187 431.5,149.5C 431.5,151.5 431.5,153.5 431.5,155.5C 428.615,155.806 425.948,155.473 423.5,154.5C 423.369,153.761 423.536,153.094 424,152.5C 425.754,154.25 427.921,154.917 430.5,154.5C 430.5,153.5 430.5,152.5 430.5,151.5C 421.19,151.328 421.19,150.828 430.5,150C 426.701,148.447 426.701,147.114 430.5,146C 429.833,145.667 429.167,145.333 428.5,145C 428.728,144.601 429.062,144.435 429.5,144.5C 433.649,145.08 437.316,144.414 440.5,142.5C 441.167,142.5 441.833,142.5 442.5,142.5C 442.577,143.75 443.244,144.583 444.5,145C 447.817,145.498 451.15,145.665 454.5,145.5C 453.89,140.683 454.223,138.683 455.5,139.5C 456.5,139.5 457.5,139.5 458.5,139.5C 458.5,137.833 458.5,136.167 458.5,134.5C 461.237,134.37 463.237,135.536 464.5,138C 463.209,140.05 462.709,142.217 463,144.5C 465.229,141.5 466.896,138.167 468,134.5C 469.714,133.075 471.047,133.408 472,135.5C 472.667,131.5 473.333,131.5 474,135.5C 474.483,134.552 474.649,133.552 474.5,132.5C 477.482,132.037 480.482,131.704 483.5,131.5 Z"/></g>
<g><path style="opacity:1" fill="#04acec" d="M 237.5,86.5 C 238.167,86.5 238.833,86.5 239.5,86.5C 239.804,87.1499 240.137,87.8165 240.5,88.5C 244.765,90.3174 249.098,91.9841 253.5,93.5C 253.833,93.5 254.167,93.5 254.5,93.5C 255.73,95.2972 256.396,97.2972 256.5,99.5C 258.199,99.3398 259.866,99.5065 261.5,100C 262.651,102.119 264.151,103.953 266,105.5C 266.49,106.793 266.657,108.127 266.5,109.5C 267.5,109.5 268.5,109.5 269.5,109.5C 269.5,110.5 269.5,111.5 269.5,112.5C 270.5,112.5 271.5,112.5 272.5,112.5C 272.178,114.722 272.845,116.556 274.5,118C 271.986,124.323 270.486,130.823 270,137.5C 272.363,132.325 274.363,126.992 276,121.5C 276.692,122.025 277.192,122.692 277.5,123.5C 275.726,126.85 276.726,128.516 280.5,128.5C 282.316,140.658 284.316,152.825 286.5,165C 285.252,167.41 284.252,169.91 283.5,172.5C 285.144,172.714 286.644,172.38 288,171.5C 290.702,173.043 291.868,175.376 291.5,178.5C 290.5,178.5 289.5,178.5 288.5,178.5C 288.66,180.199 288.494,181.866 288,183.5C 287,184.833 286,184.833 285,183.5C 284.241,185.063 283.074,186.063 281.5,186.5C 280.272,185.694 279.272,184.694 278.5,183.5C 274.344,176.449 271.677,168.782 270.5,160.5C 270.666,154.158 270.5,147.825 270,141.5C 267.178,135.185 264.511,128.851 262,122.5C 261.329,121.748 260.496,121.414 259.5,121.5C 252.841,113.175 244.508,107.175 234.5,103.5C 232.852,102.073 230.852,101.24 228.5,101C 223.167,100.333 217.833,100.333 212.5,101C 210.148,101.24 208.148,102.073 206.5,103.5C 186.51,109.836 175.176,123.503 172.5,144.5C 171.566,145.568 171.232,146.901 171.5,148.5C 166.5,148.5 161.5,148.5 156.5,148.5C 156.335,144.818 156.501,141.152 157,137.5C 158.333,133.5 159.667,129.5 161,125.5C 161.743,127.645 162.576,127.811 163.5,126C 163.01,123.654 162.343,121.487 161.5,119.5C 161.5,118.833 161.833,118.5 162.5,118.5C 164.637,116.605 166.97,115.938 169.5,116.5C 168.035,114.055 168.535,112.055 171,110.5C 171.283,113.742 172.117,114.076 173.5,111.5C 171.876,110.131 171.376,108.464 172,106.5C 175.048,104.904 177.548,102.737 179.5,100C 181.936,99.8762 184.269,100.376 186.5,101.5C 186.863,99.0885 185.863,97.5885 183.5,97C 186.906,95.6185 189.573,93.4518 191.5,90.5C 206.619,86.6758 221.953,85.3425 237.5,86.5 Z"/></g>
<g><path style="opacity:0.891" fill="#1b6681" d="M 234.5,103.5 C 225.167,100.833 215.833,100.833 206.5,103.5C 208.148,102.073 210.148,101.24 212.5,101C 217.833,100.333 223.167,100.333 228.5,101C 230.852,101.24 232.852,102.073 234.5,103.5 Z"/></g>
<g><path style="opacity:1" fill="#304e5a" d="M 491.5,123.5 C 492.496,123.414 493.329,123.748 494,124.5C 496.745,129.656 499.745,134.656 503,139.5C 503.909,145.612 503.576,151.612 502,157.5C 501.151,150.12 499.485,149.787 497,156.5C 496.329,155.748 495.496,155.414 494.5,155.5C 497.28,149.7 497.946,143.7 496.5,137.5C 496.5,137.167 496.5,136.833 496.5,136.5C 495.812,131.765 494.145,127.432 491.5,123.5 Z"/></g>
<g><path style="opacity:0.949" fill="#3896b3" d="M 481.5,129.5 C 482.167,130.167 482.833,130.833 483.5,131.5C 480.482,131.704 477.482,132.037 474.5,132.5C 474.649,133.552 474.483,134.552 474,135.5C 473.333,131.5 472.667,131.5 472,135.5C 471.047,133.408 469.714,133.075 468,134.5C 466.896,138.167 465.229,141.5 463,144.5C 462.709,142.217 463.209,140.05 464.5,138C 463.237,135.536 461.237,134.37 458.5,134.5C 458.5,136.167 458.5,137.833 458.5,139.5C 457.5,139.5 456.5,139.5 455.5,139.5C 454.223,138.683 453.89,140.683 454.5,145.5C 451.15,145.665 447.817,145.498 444.5,145C 443.244,144.583 442.577,143.75 442.5,142.5C 445.85,142.665 449.183,142.498 452.5,142C 451.584,141.626 450.75,141.126 450,140.5C 447.421,141.376 444.754,141.376 442,140.5C 440.833,140.833 439.667,141.167 438.5,141.5C 438.957,142.298 439.624,142.631 440.5,142.5C 437.316,144.414 433.649,145.08 429.5,144.5C 429.461,143.417 429.127,142.417 428.5,141.5C 431.015,140.8 431.682,139.467 430.5,137.5C 430.855,136.478 431.522,135.811 432.5,135.5C 433.306,138.422 434.306,138.756 435.5,136.5C 435.253,135.287 434.586,134.62 433.5,134.5C 434.514,133.326 435.847,132.66 437.5,132.5C 437.5,132.167 437.5,131.833 437.5,131.5C 440.167,131.5 442.833,131.5 445.5,131.5C 445.759,135.068 447.759,136.401 451.5,135.5C 451.5,134.5 451.5,133.5 451.5,132.5C 454.909,132.249 458.242,132.583 461.5,133.5C 463.22,132.045 465.22,131.212 467.5,131C 466.552,130.517 465.552,130.351 464.5,130.5C 465.008,127.824 465.175,125.157 465,122.5C 464.333,126.5 463.667,126.5 463,122.5C 462.107,123.711 461.274,123.711 460.5,122.5C 461.833,121.5 461.833,120.5 460.5,119.5C 461.376,118.749 462.376,118.249 463.5,118C 462.109,116.98 460.609,116.147 459,115.5C 459.152,118.447 459.319,121.447 459.5,124.5C 456.402,124.413 456.068,124.913 458.5,126C 454.538,126.592 450.871,127.092 447.5,127.5C 447.5,126.833 447.5,126.167 447.5,125.5C 448.209,124.596 449.209,124.263 450.5,124.5C 450.5,122.5 450.5,120.5 450.5,118.5C 448.801,118.34 447.134,118.506 445.5,119C 446.337,120.011 446.67,121.178 446.5,122.5C 444.833,122.5 443.167,122.5 441.5,122.5C 441.351,121.448 441.517,120.448 442,119.5C 444.167,117.667 446.333,115.833 448.5,114C 450.902,113.322 453.068,113.822 455,115.5C 457.886,114.798 460.719,114.464 463.5,114.5C 464.386,115.325 464.719,116.325 464.5,117.5C 465.822,117.67 466.989,117.337 468,116.5C 468.304,118.441 469.137,120.107 470.5,121.5C 467.537,125.253 468.204,126.92 472.5,126.5C 472.281,125.325 472.614,124.325 473.5,123.5C 475.875,125.265 478.542,126.432 481.5,127C 482.598,127.77 482.598,128.603 481.5,129.5 Z"/></g>
<g><path style="opacity:0.557" fill="#172d33" d="M 442.5,142.5 C 441.833,142.5 441.167,142.5 440.5,142.5C 439.624,142.631 438.957,142.298 438.5,141.5C 439.667,141.167 440.833,140.833 442,140.5C 444.754,141.376 447.421,141.376 450,140.5C 450.75,141.126 451.584,141.626 452.5,142C 449.183,142.498 445.85,142.665 442.5,142.5 Z"/></g>
<g><path style="opacity:0.763" fill="#285e6d" d="M 437.5,132.5 C 439.5,132.5 441.5,132.5 443.5,132.5C 443.719,133.675 443.386,134.675 442.5,135.5C 441.232,134.572 439.899,134.405 438.5,135C 439.784,136.297 439.617,137.464 438,138.5C 436.311,136.68 436.145,134.68 437.5,132.5 Z"/></g>
<g><path style="opacity:0.969" fill="#43a0c6" d="M 259.5,121.5 C 260.496,121.414 261.329,121.748 262,122.5C 264.511,128.851 267.178,135.185 270,141.5C 270.5,147.825 270.666,154.158 270.5,160.5C 269.698,159.048 269.198,157.382 269,155.5C 268.536,156.094 268.369,156.761 268.5,157.5C 268.167,157.5 267.833,157.5 267.5,157.5C 267.5,153.833 267.5,150.167 267.5,146.5C 266.853,137.535 264.187,129.202 259.5,121.5 Z"/></g>
<g><path style="opacity:1" fill="#3d869c" d="M 421.5,122.5 C 421.5,123.833 422.167,124.5 423.5,124.5C 421.375,127.013 419.708,129.846 418.5,133C 420.885,133.556 423.218,133.39 425.5,132.5C 425.784,134.415 425.451,136.081 424.5,137.5C 424.38,136.414 423.713,135.747 422.5,135.5C 415.655,136.979 412.322,140.979 412.5,147.5C 414.801,146.675 417.135,146.008 419.5,145.5C 418.047,146.825 418.381,147.658 420.5,148C 419.901,149.622 419.234,151.122 418.5,152.5C 418.5,151.167 418.5,149.833 418.5,148.5C 410.629,148.238 406.296,151.905 405.5,159.5C 404.566,158.432 404.232,157.099 404.5,155.5C 405.962,151.298 404.962,150.631 401.5,153.5C 399.391,153.225 398.058,152.058 397.5,150C 398.794,144.709 400.128,139.543 401.5,134.5C 401.369,135.239 401.536,135.906 402,136.5C 403.468,133.858 405.635,132.191 408.5,131.5C 408.179,133.048 407.179,133.715 405.5,133.5C 405.5,134.833 405.5,136.167 405.5,137.5C 408.216,137.322 410.883,136.822 413.5,136C 416.057,132.715 417.89,129.215 419,125.5C 415.883,126.304 412.716,126.97 409.5,127.5C 409.5,126.833 409.5,126.167 409.5,125.5C 413.485,124.512 417.485,123.512 421.5,122.5 Z"/></g>
<g><path style="opacity:0.428" fill="#080e0f" d="M 408.5,138.5 C 409.978,138.238 411.311,138.571 412.5,139.5C 410.625,142.751 408.625,145.918 406.5,149C 404.527,149.495 402.527,149.662 400.5,149.5C 400.088,143.246 402.754,139.58 408.5,138.5 Z"/></g>
<g><path style="opacity:0.957" fill="#45b2d3" d="M 438.5,126.5 C 441.57,126.632 444.57,126.299 447.5,125.5C 447.5,126.167 447.5,126.833 447.5,127.5C 445.473,127.338 443.473,127.505 441.5,128C 439.999,129.252 438.332,130.252 436.5,131C 436.728,131.399 437.062,131.565 437.5,131.5C 437.5,131.833 437.5,132.167 437.5,132.5C 435.847,132.66 434.514,133.326 433.5,134.5C 433.5,135.167 433.167,135.5 432.5,135.5C 431.522,135.811 430.855,136.478 430.5,137.5C 431.682,139.467 431.015,140.8 428.5,141.5C 429.127,142.417 429.461,143.417 429.5,144.5C 429.062,144.435 428.728,144.601 428.5,145C 429.167,145.333 429.833,145.667 430.5,146C 426.701,147.114 426.701,148.447 430.5,150C 421.19,150.828 421.19,151.328 430.5,151.5C 430.5,152.5 430.5,153.5 430.5,154.5C 427.921,154.917 425.754,154.25 424,152.5C 423.536,153.094 423.369,153.761 423.5,154.5C 422.596,155.209 422.263,156.209 422.5,157.5C 424.527,157.338 426.527,157.505 428.5,158C 427.5,158.333 426.5,158.667 425.5,159C 428.61,160.698 431.943,161.698 435.5,162C 434.584,162.278 433.918,162.778 433.5,163.5C 432.833,163.5 432.167,163.5 431.5,163.5C 428.482,163.665 425.482,163.498 422.5,163C 421.944,162.617 421.611,162.117 421.5,161.5C 420.791,160.596 419.791,160.263 418.5,160.5C 418.5,157.833 418.5,155.167 418.5,152.5C 419.234,151.122 419.901,149.622 420.5,148C 418.381,147.658 418.047,146.825 419.5,145.5C 422.242,143.551 423.909,140.884 424.5,137.5C 425.451,136.081 425.784,134.415 425.5,132.5C 426.9,131.9 427.9,130.9 428.5,129.5C 428.821,127.952 429.821,127.285 431.5,127.5C 433.775,124.702 436.108,124.369 438.5,126.5 Z"/></g>
<g><path style="opacity:0.17" fill="#050708" d="M 418.5,152.5 C 417.717,154.343 417.05,156.343 416.5,158.5C 413.914,159.709 411.414,161.043 409,162.5C 407.826,161.456 406.659,160.456 405.5,159.5C 406.296,151.905 410.629,148.238 418.5,148.5C 418.5,149.833 418.5,151.167 418.5,152.5 Z"/></g>
<g><path style="opacity:0.411" fill="#0a0f11" d="M 472.5,152.5 C 473.434,153.568 473.768,154.901 473.5,156.5C 470.672,159.873 468.339,163.706 466.5,168C 462.583,169.479 458.583,170.646 454.5,171.5C 455.985,168.917 458.318,167.584 461.5,167.5C 461.5,166.167 461.5,164.833 461.5,163.5C 462.5,163.5 463.5,163.5 464.5,163.5C 464.643,161.738 464.309,160.071 463.5,158.5C 466.394,157.744 468.394,156.077 469.5,153.5C 470.222,153.082 470.722,152.416 471,151.5C 471.383,152.056 471.883,152.389 472.5,152.5 Z"/></g>
<g><path style="opacity:0.996" fill="#3c3d3d" d="M 172.5,144.5 C 172.488,150.871 172.988,157.204 174,163.5C 184.617,188.997 203.451,199.664 230.5,195.5C 239.477,193.846 247.144,189.846 253.5,183.5C 254.5,183.5 255.5,183.5 256.5,183.5C 256.831,181.678 257.498,180.011 258.5,178.5C 262.859,172.09 265.859,165.09 267.5,157.5C 267.833,157.5 268.167,157.5 268.5,157.5C 269.572,164.6 271.072,171.6 273,178.5C 274.405,179.731 275.571,181.064 276.5,182.5C 270.104,192.393 261.771,200.56 251.5,207C 246.257,209.251 240.923,211.418 235.5,213.5C 234.554,213.013 233.554,212.68 232.5,212.5C 213.51,216.963 196.177,213.463 180.5,202C 171.494,194.162 164.161,184.995 158.5,174.5C 155.414,166.24 154.08,157.574 154.5,148.5C 160.266,149.804 165.933,149.804 171.5,148.5C 171.232,146.901 171.566,145.568 172.5,144.5 Z"/></g>
<g><path style="opacity:1" fill="#244f62" d="M 383.5,153.5 C 385.621,160.754 387.621,168.088 389.5,175.5C 386.659,171.974 384.992,167.974 384.5,163.5C 383.949,160.193 383.616,156.86 383.5,153.5 Z"/></g>
<g><path style="opacity:0.201" fill="#040607" d="M 421.5,161.5 C 421.611,162.117 421.944,162.617 422.5,163C 425.482,163.498 428.482,163.665 431.5,163.5C 431.267,165.062 430.6,166.395 429.5,167.5C 426.076,168.925 422.742,170.592 419.5,172.5C 418.417,172.539 417.417,172.873 416.5,173.5C 415.828,172.051 415.161,170.718 414.5,169.5C 415.018,165.072 417.351,162.405 421.5,161.5 Z"/></g>
<g><path style="opacity:0.42" fill="#4399b1" d="M 418.5,152.5 C 418.5,155.167 418.5,157.833 418.5,160.5C 419.791,160.263 420.791,160.596 421.5,161.5C 417.351,162.405 415.018,165.072 414.5,169.5C 414.5,171.167 414.5,172.833 414.5,174.5C 413.935,171.695 412.935,169.028 411.5,166.5C 409.5,165.833 407.5,165.167 405.5,164.5C 405.5,162.833 405.5,161.167 405.5,159.5C 406.659,160.456 407.826,161.456 409,162.5C 411.414,161.043 413.914,159.709 416.5,158.5C 417.05,156.343 417.717,154.343 418.5,152.5 Z"/></g>
<g><path style="opacity:0.245" fill="#10191c" d="M 411.5,166.5 C 410.909,165.849 410.243,165.182 409.5,164.5C 411.074,163.369 412.741,163.202 414.5,164C 413.922,165.417 412.922,166.25 411.5,166.5 Z"/></g>
<g><path style="opacity:1" fill="#2f4d56" d="M 450.5,101.5 C 449.548,102.452 448.548,103.452 447.5,104.5C 445.786,103.391 445.119,104.058 445.5,106.5C 444.833,106.167 444.167,105.833 443.5,105.5C 443.33,104.178 443.663,103.011 444.5,102C 442.512,101.82 440.512,101.986 438.5,102.5C 436.372,101.371 434.039,101.204 431.5,102C 428.282,104.777 424.615,106.777 420.5,108C 418.63,110.04 416.63,111.873 414.5,113.5C 411.027,115.637 408.694,118.637 407.5,122.5C 404.318,125.852 402.318,129.852 401.5,134.5C 400.128,139.543 398.794,144.709 397.5,150C 398.058,152.058 399.391,153.225 401.5,153.5C 404.962,150.631 405.962,151.298 404.5,155.5C 403.504,155.414 402.671,155.748 402,156.5C 401.344,164.207 403.344,171.207 408,177.5C 410.335,180.665 412.835,183.665 415.5,186.5C 417.757,187.401 419.257,189.068 420,191.5C 420.717,190.956 421.217,190.289 421.5,189.5C 424.19,190.546 426.857,191.546 429.5,192.5C 431.518,193.047 433.351,194.047 435,195.5C 435.383,194.944 435.883,194.611 436.5,194.5C 437.312,195.993 438.645,196.66 440.5,196.5C 442.207,196.272 443.874,195.938 445.5,195.5C 446.919,196.451 448.585,196.784 450.5,196.5C 454.733,197.225 458.733,196.225 462.5,193.5C 462.369,194.376 462.702,195.043 463.5,195.5C 465.968,194.197 468.301,192.697 470.5,191C 469.226,190.023 469.226,189.189 470.5,188.5C 470.56,189.043 470.893,189.376 471.5,189.5C 473.836,188.999 475.836,187.999 477.5,186.5C 477.783,187.289 478.283,187.956 479,188.5C 481.956,186.278 484.79,183.945 487.5,181.5C 486.577,184.34 484.91,186.674 482.5,188.5C 477.309,191.928 471.975,195.095 466.5,198C 465.663,199.011 465.33,200.178 465.5,201.5C 462.592,201.738 460.258,200.738 458.5,198.5C 454.274,200.82 449.941,202.486 445.5,203.5C 445.404,198.89 444.404,198.556 442.5,202.5C 439.579,201.593 436.579,201.26 433.5,201.5C 432.97,196.811 430.47,195.478 426,197.5C 423.865,196.873 421.698,196.373 419.5,196C 418.887,193.853 418.221,191.686 417.5,189.5C 415.205,188.568 412.871,187.735 410.5,187C 409.044,184.734 408.21,182.234 408,179.5C 405.732,177.238 403.232,175.238 400.5,173.5C 399.608,170.192 398.274,167.192 396.5,164.5C 396.2,157.747 394.534,151.413 391.5,145.5C 391.833,144.833 392.167,144.167 392.5,143.5C 393.736,144.246 395.07,144.579 396.5,144.5C 396.334,139.821 396.501,135.155 397,130.5C 398.216,128.038 398.882,125.371 399,122.5C 403.764,117.28 407.764,111.613 411,105.5C 412.205,106.071 413.372,106.738 414.5,107.5C 413.674,108.451 413.508,109.451 414,110.5C 419.385,108.323 423.885,104.99 427.5,100.5C 428.833,99.8333 430.167,99.1667 431.5,98.5C 437.466,99.2722 443.466,99.4389 449.5,99C 450.252,99.6708 450.586,100.504 450.5,101.5 Z"/></g>
<g><path style="opacity:0.982" fill="#3a9ab7" d="M 486.5,132.5 C 488.609,133.391 490.609,134.558 492.5,136C 492.167,136.333 491.833,136.667 491.5,137C 492.428,137.388 493.095,138.055 493.5,139C 493,140.5 492.5,142 492,143.5C 490.951,142.483 489.784,142.316 488.5,143C 489.563,144.188 490.897,144.688 492.5,144.5C 492.5,145.5 492.5,146.5 492.5,147.5C 493.5,147.5 494.5,147.5 495.5,147.5C 495.833,144.167 496.167,140.833 496.5,137.5C 497.946,143.7 497.28,149.7 494.5,155.5C 494.167,155.5 493.833,155.5 493.5,155.5C 491.964,157.025 490.964,159.025 490.5,161.5C 488.512,159.853 487.179,160.186 486.5,162.5C 485.596,161.791 485.263,160.791 485.5,159.5C 485.714,155.743 484.714,155.076 482.5,157.5C 481.451,160.08 480.784,162.746 480.5,165.5C 478.856,165.714 477.356,165.38 476,164.5C 475.505,162.527 475.338,160.527 475.5,158.5C 475.869,156.007 475.203,155.34 473.5,156.5C 473.768,154.901 473.434,153.568 472.5,152.5C 472.096,151.244 471.429,150.077 470.5,149C 470.613,147.72 471.28,146.887 472.5,146.5C 474.635,147.881 476.968,148.881 479.5,149.5C 477.429,150.976 476.429,152.976 476.5,155.5C 477.552,155.649 478.552,155.483 479.5,155C 478.663,153.989 478.33,152.822 478.5,151.5C 481.5,151.167 483.167,149.5 483.5,146.5C 485.199,146.66 486.866,146.494 488.5,146C 485.232,144.787 481.899,144.454 478.5,145C 479.938,145.219 481.271,145.719 482.5,146.5C 482.333,146.833 482.167,147.167 482,147.5C 478.017,145.897 473.85,145.23 469.5,145.5C 469.5,148.167 469.5,150.833 469.5,153.5C 468.394,156.077 466.394,157.744 463.5,158.5C 464.309,160.071 464.643,161.738 464.5,163.5C 463.5,163.5 462.5,163.5 461.5,163.5C 461.5,164.833 461.5,166.167 461.5,167.5C 458.318,167.584 455.985,168.917 454.5,171.5C 451.869,170.575 451.202,168.909 452.5,166.5C 453.396,167.506 454.062,167.506 454.5,166.5C 454.069,165.707 453.735,164.873 453.5,164C 454.477,162.503 455.477,161.003 456.5,159.5C 456.139,157.582 455.472,157.249 454.5,158.5C 452.516,158.617 450.85,157.95 449.5,156.5C 451.743,155.526 454.076,155.192 456.5,155.5C 456.543,152.912 457.543,150.746 459.5,149C 456.951,149.68 454.284,150.513 451.5,151.5C 452.025,152.192 452.692,152.692 453.5,153C 452.095,154.269 450.429,154.769 448.5,154.5C 448.649,155.552 448.483,156.552 448,157.5C 447.333,155.833 447.333,154.167 448,152.5C 448.893,153.711 449.726,153.711 450.5,152.5C 449.271,151.719 447.938,151.219 446.5,151C 458.197,146.752 470.197,143.585 482.5,141.5C 483.167,141.833 483.833,142.167 484.5,142.5C 486.321,141.272 487.321,139.606 487.5,137.5C 486.448,137.649 485.448,137.483 484.5,137C 485.267,135.53 485.933,134.03 486.5,132.5 Z"/></g>
<g><path style="opacity:0.733" fill="#30798d" d="M 472.5,152.5 C 471.883,152.389 471.383,152.056 471,151.5C 470.722,152.416 470.222,153.082 469.5,153.5C 469.5,150.833 469.5,148.167 469.5,145.5C 473.85,145.23 478.017,145.897 482,147.5C 482.167,147.167 482.333,146.833 482.5,146.5C 481.271,145.719 479.938,145.219 478.5,145C 481.899,144.454 485.232,144.787 488.5,146C 486.866,146.494 485.199,146.66 483.5,146.5C 483.167,149.5 481.5,151.167 478.5,151.5C 478.33,152.822 478.663,153.989 479.5,155C 478.552,155.483 477.552,155.649 476.5,155.5C 476.429,152.976 477.429,150.976 479.5,149.5C 476.968,148.881 474.635,147.881 472.5,146.5C 471.28,146.887 470.613,147.72 470.5,149C 471.429,150.077 472.096,151.244 472.5,152.5 Z"/></g>
<g><path style="opacity:0.894" fill="#45a8c6" d="M 454.5,158.5 C 455.472,157.249 456.139,157.582 456.5,159.5C 455.477,161.003 454.477,162.503 453.5,164C 453.735,164.873 454.069,165.707 454.5,166.5C 454.062,167.506 453.396,167.506 452.5,166.5C 451.202,168.909 451.869,170.575 454.5,171.5C 455.11,172.391 455.443,173.391 455.5,174.5C 454.072,177.4 451.906,178.067 449,176.5C 449.487,178.044 449.987,179.71 450.5,181.5C 449.662,181.842 449.328,182.508 449.5,183.5C 449.5,184.167 449.5,184.833 449.5,185.5C 447.833,186.167 446.167,186.833 444.5,187.5C 442.611,186.396 440.945,185.063 439.5,183.5C 439.5,182.167 439.5,180.833 439.5,179.5C 437.901,179.768 436.568,179.434 435.5,178.5C 435.865,175.846 436.199,172.846 436.5,169.5C 431.695,169.386 428.695,171.72 427.5,176.5C 426.662,176.158 426.328,175.492 426.5,174.5C 426.631,173.761 426.464,173.094 426,172.5C 424.989,173.337 423.822,173.67 422.5,173.5C 421.209,173.737 420.209,173.404 419.5,172.5C 422.742,170.592 426.076,168.925 429.5,167.5C 431.167,167.5 432.833,167.5 434.5,167.5C 434.768,165.901 434.434,164.568 433.5,163.5C 433.918,162.778 434.584,162.278 435.5,162C 431.943,161.698 428.61,160.698 425.5,159C 426.5,158.667 427.5,158.333 428.5,158C 426.527,157.505 424.527,157.338 422.5,157.5C 422.263,156.209 422.596,155.209 423.5,154.5C 425.948,155.473 428.615,155.806 431.5,155.5C 431.5,153.5 431.5,151.5 431.5,149.5C 434.247,149.187 436.914,149.52 439.5,150.5C 438.189,151.258 437.689,152.258 438,153.5C 440.57,152.991 442.903,151.991 445,150.5C 445.814,152.902 445.647,155.235 444.5,157.5C 444.094,156.443 444.094,155.109 444.5,153.5C 440.627,154.956 436.627,156.123 432.5,157C 433.448,157.483 434.448,157.649 435.5,157.5C 436.167,159.833 436.833,162.167 437.5,164.5C 441.62,163.19 445.62,162.524 449.5,162.5C 449.5,161.5 449.5,160.5 449.5,159.5C 451.415,159.784 453.081,159.451 454.5,158.5 Z"/></g>
<g><path style="opacity:0.831" fill="#346678" d="M 431.5,163.5 C 432.167,163.5 432.833,163.5 433.5,163.5C 434.434,164.568 434.768,165.901 434.5,167.5C 432.833,167.5 431.167,167.5 429.5,167.5C 430.6,166.395 431.267,165.062 431.5,163.5 Z"/></g>
<g><path style="opacity:1" fill="#35b8e5" d="M 404.5,155.5 C 404.232,157.099 404.566,158.432 405.5,159.5C 405.5,161.167 405.5,162.833 405.5,164.5C 407.5,165.167 409.5,165.833 411.5,166.5C 412.935,169.028 413.935,171.695 414.5,174.5C 415.167,176.833 415.833,179.167 416.5,181.5C 416.557,182.609 416.89,183.609 417.5,184.5C 417.5,185.833 416.833,186.5 415.5,186.5C 412.835,183.665 410.335,180.665 408,177.5C 403.344,171.207 401.344,164.207 402,156.5C 402.671,155.748 403.504,155.414 404.5,155.5 Z"/></g>
<g><path style="opacity:0.729" fill="#37798f" d="M 446.5,164.5 C 448.978,166.483 449.145,168.816 447,171.5C 446.667,169.833 446.333,168.167 446,166.5C 445.667,168.833 445.333,171.167 445,173.5C 444.374,171.009 443.541,171.009 442.5,173.5C 441.752,171.668 440.752,170.001 439.5,168.5C 441.557,166.491 443.89,165.157 446.5,164.5 Z"/></g>
<g><path style="opacity:0.176" fill="#070b0c" d="M 435.5,178.5 C 432.21,180.537 428.71,182.204 425,183.5C 425.695,181.256 426.529,178.922 427.5,176.5C 428.695,171.72 431.695,169.386 436.5,169.5C 436.199,172.846 435.865,175.846 435.5,178.5 Z"/></g>
<g><path style="opacity:0.702" fill="#316170" d="M 414.5,169.5 C 415.161,170.718 415.828,172.051 416.5,173.5C 417.417,172.873 418.417,172.539 419.5,172.5C 420.209,173.404 421.209,173.737 422.5,173.5C 420.735,174.461 418.735,174.795 416.5,174.5C 416.5,176.833 416.5,179.167 416.5,181.5C 415.833,179.167 415.167,176.833 414.5,174.5C 414.5,172.833 414.5,171.167 414.5,169.5 Z"/></g>
<g><path style="opacity:0.361" fill="#060a0c" d="M 426.5,174.5 C 423.919,177.32 422.086,180.654 421,184.5C 419.855,185.684 418.688,185.684 417.5,184.5C 416.89,183.609 416.557,182.609 416.5,181.5C 416.5,179.167 416.5,176.833 416.5,174.5C 418.735,174.795 420.735,174.461 422.5,173.5C 423.822,173.67 424.989,173.337 426,172.5C 426.464,173.094 426.631,173.761 426.5,174.5 Z"/></g>
<g><path style="opacity:0.451" fill="#40829a" d="M 475.5,158.5 C 473.142,160.168 471.476,162.501 470.5,165.5C 472.045,166.452 473.712,166.785 475.5,166.5C 475.5,167.5 475.5,168.5 475.5,169.5C 472.813,169.336 470.146,169.503 467.5,170C 466.084,172.835 464.417,175.502 462.5,178C 467.145,177.342 471.811,176.342 476.5,175C 480.158,170.18 483.158,165.013 485.5,159.5C 485.263,160.791 485.596,161.791 486.5,162.5C 487.179,160.186 488.512,159.853 490.5,161.5C 490.964,159.025 491.964,157.025 493.5,155.5C 492.489,157.402 492.322,159.402 493,161.5C 494.816,156.024 495.65,156.191 495.5,162C 494.665,165.504 493.832,169.004 493,172.5C 490.642,175.222 488.809,178.222 487.5,181.5C 484.79,183.945 481.956,186.278 479,188.5C 478.283,187.956 477.783,187.289 477.5,186.5C 476.399,185.402 475.066,185.235 473.5,186C 472.627,187.045 471.627,187.878 470.5,188.5C 469.226,189.189 469.226,190.023 470.5,191C 468.301,192.697 465.968,194.197 463.5,195.5C 462.702,195.043 462.369,194.376 462.5,193.5C 464.229,192.883 465.729,191.883 467,190.5C 467.591,189.517 467.257,188.85 466,188.5C 460.546,190.7 455.379,193.367 450.5,196.5C 448.585,196.784 446.919,196.451 445.5,195.5C 450.711,193.438 454.378,189.771 456.5,184.5C 456,184.167 455.5,183.833 455,183.5C 453.2,184.32 451.366,184.986 449.5,185.5C 449.5,184.833 449.5,184.167 449.5,183.5C 453.252,183.499 454.252,181.833 452.5,178.5C 451.824,179.602 451.158,180.602 450.5,181.5C 449.987,179.71 449.487,178.044 449,176.5C 451.906,178.067 454.072,177.4 455.5,174.5C 455.443,173.391 455.11,172.391 454.5,171.5C 458.583,170.646 462.583,169.479 466.5,168C 468.339,163.706 470.672,159.873 473.5,156.5C 475.203,155.34 475.869,156.007 475.5,158.5 Z"/></g>
<g><path style="opacity:0.988" fill="#3faacd" d="M 455.5,174.5 C 457.167,174.5 458.833,174.5 460.5,174.5C 459.37,176.315 458.704,178.315 458.5,180.5C 458.5,181.167 458.833,181.5 459.5,181.5C 459.5,181.833 459.5,182.167 459.5,182.5C 457.833,182.5 456.167,182.5 454.5,182.5C 455.092,179.873 455.425,177.206 455.5,174.5 Z"/></g>
<g><path style="opacity:0.243" fill="#111a1d" d="M 458.5,180.5 C 458.704,178.315 459.37,176.315 460.5,174.5C 460.082,173.778 459.416,173.278 458.5,173C 460.146,171.599 461.813,171.432 463.5,172.5C 462.309,175.568 460.642,178.235 458.5,180.5 Z"/></g>
<g><path style="opacity:0.969" fill="#37afd8" d="M 486.5,162.5 C 488.117,163.589 488.95,165.256 489,167.5C 490.789,164.821 491.955,164.987 492.5,168C 491.715,169.951 490.715,171.785 489.5,173.5C 488.675,174.386 487.675,174.719 486.5,174.5C 486.167,174.5 485.833,174.5 485.5,174.5C 485.751,171.091 485.417,167.758 484.5,164.5C 485.262,164.089 486.262,163.923 487.5,164C 486.944,163.617 486.611,163.117 486.5,162.5 Z"/></g>
<g><path style="opacity:0.089" fill="#070b0c" d="M 485.5,174.5 C 485.833,174.5 486.167,174.5 486.5,174.5C 487.463,175.363 487.463,176.03 486.5,176.5C 484.465,175.959 482.465,175.292 480.5,174.5C 481.948,172.333 483.115,170 484,167.5C 484.186,170.036 484.686,172.369 485.5,174.5 Z"/></g>
<g><path style="opacity:0.14" fill="#090c0d" d="M 485.5,159.5 C 483.158,165.013 480.158,170.18 476.5,175C 471.811,176.342 467.145,177.342 462.5,178C 464.417,175.502 466.084,172.835 467.5,170C 470.146,169.503 472.813,169.336 475.5,169.5C 475.5,168.5 475.5,167.5 475.5,166.5C 473.712,166.785 472.045,166.452 470.5,165.5C 471.476,162.501 473.142,160.168 475.5,158.5C 475.338,160.527 475.505,162.527 476,164.5C 477.356,165.38 478.856,165.714 480.5,165.5C 480.784,162.746 481.451,160.08 482.5,157.5C 484.714,155.076 485.714,155.743 485.5,159.5 Z"/></g>
<g><path style="opacity:0.152" fill="#0e1415" d="M 477.5,177.5 C 485.092,176.693 486.092,178.526 480.5,183C 478.421,183.808 476.421,183.641 474.5,182.5C 475.952,181.06 476.952,179.394 477.5,177.5 Z"/></g>
<g><path style="opacity:0.233" fill="#06090a" d="M 459.5,182.5 C 459.5,182.167 459.5,181.833 459.5,181.5C 464.497,180.709 469.33,179.376 474,177.5C 474.269,180.28 473.102,182.446 470.5,184C 465.592,186.038 460.759,188.205 456,190.5C 456.38,187.579 457.547,184.912 459.5,182.5 Z"/></g>
<g><path style="opacity:1" fill="#39acdc" d="M 383.5,153.5 C 383.616,156.86 383.949,160.193 384.5,163.5C 383.685,162.571 382.852,161.571 382,160.5C 381.667,163.5 381.333,166.5 381,169.5C 377.131,171.737 374.298,174.903 372.5,179C 373.448,179.483 374.448,179.649 375.5,179.5C 376.34,183.539 375.007,186.539 371.5,188.5C 372.641,189.425 372.641,190.259 371.5,191C 370.4,191.432 369.733,190.932 369.5,189.5C 371.191,184.363 369.858,183.363 365.5,186.5C 364.194,187.912 363.36,189.579 363,191.5C 360.853,190.524 358.686,190.691 356.5,192C 353.871,195.666 350.871,196.499 347.5,194.5C 368.37,186.858 379.37,171.858 380.5,149.5C 381.15,149.196 381.817,148.863 382.5,148.5C 383.452,150.045 383.785,151.712 383.5,153.5 Z"/></g>
<g><path style="opacity:0.608" fill="#0e1315" d="M 449.5,183.5 C 449.328,182.508 449.662,181.842 450.5,181.5C 451.158,180.602 451.824,179.602 452.5,178.5C 454.252,181.833 453.252,183.499 449.5,183.5 Z"/></g>
<g><path style="opacity:0.937" fill="#214b5e" d="M 270.5,160.5 C 271.677,168.782 274.344,176.449 278.5,183.5C 277.833,183.167 277.167,182.833 276.5,182.5C 275.571,181.064 274.405,179.731 273,178.5C 271.072,171.6 269.572,164.6 268.5,157.5C 268.369,156.761 268.536,156.094 269,155.5C 269.198,157.382 269.698,159.048 270.5,160.5 Z"/></g>
<g><path style="opacity:0.132" fill="#050709" d="M 439.5,183.5 C 437.885,188.323 434.551,191.323 429.5,192.5C 426.857,191.546 424.19,190.546 421.5,189.5C 421.511,187.983 422.177,186.816 423.5,186C 428.6,184.867 433.433,183.033 438,180.5C 438.232,181.737 438.732,182.737 439.5,183.5 Z"/></g>
<g><path style="opacity:0.565" fill="#898989" d="M 258.5,178.5 C 257.498,180.011 256.831,181.678 256.5,183.5C 255.5,183.5 254.5,183.5 253.5,183.5C 254.765,181.438 256.431,179.771 258.5,178.5 Z"/></g>
<g><path style="opacity:1" fill="#13a2d8" d="M 254.5,93.5 C 263.861,99.195 271.194,106.862 276.5,116.5C 281.489,125.428 284.489,135.095 285.5,145.5C 285.67,150.859 286.17,156.192 287,161.5C 290.088,170.699 294.922,178.699 301.5,185.5C 300.265,185.279 299.265,184.612 298.5,183.5C 297.833,183.833 297.167,184.167 296.5,184.5C 295.833,182.833 295.167,181.167 294.5,179.5C 293.774,182.393 291.941,184.059 289,184.5C 288.55,186.519 287.717,188.352 286.5,190C 287.406,191.699 287.739,193.533 287.5,195.5C 283.897,193.565 281.897,190.565 281.5,186.5C 283.074,186.063 284.241,185.063 285,183.5C 286,184.833 287,184.833 288,183.5C 288.494,181.866 288.66,180.199 288.5,178.5C 289.5,178.5 290.5,178.5 291.5,178.5C 291.868,175.376 290.702,173.043 288,171.5C 286.644,172.38 285.144,172.714 283.5,172.5C 284.252,169.91 285.252,167.41 286.5,165C 284.316,152.825 282.316,140.658 280.5,128.5C 276.726,128.516 275.726,126.85 277.5,123.5C 277.192,122.692 276.692,122.025 276,121.5C 274.363,126.992 272.363,132.325 270,137.5C 270.486,130.823 271.986,124.323 274.5,118C 272.845,116.556 272.178,114.722 272.5,112.5C 271.5,112.5 270.5,112.5 269.5,112.5C 269.5,111.5 269.5,110.5 269.5,109.5C 268.5,109.5 267.5,109.5 266.5,109.5C 266.657,108.127 266.49,106.793 266,105.5C 264.151,103.953 262.651,102.119 261.5,100C 259.866,99.5065 258.199,99.3398 256.5,99.5C 256.396,97.2972 255.73,95.2972 254.5,93.5 Z"/></g>
<g><path style="opacity:0.294" fill="#3f8296" d="M 426.5,174.5 C 426.328,175.492 426.662,176.158 427.5,176.5C 426.529,178.922 425.695,181.256 425,183.5C 428.71,182.204 432.21,180.537 435.5,178.5C 436.568,179.434 437.901,179.768 439.5,179.5C 439.5,180.833 439.5,182.167 439.5,183.5C 438.732,182.737 438.232,181.737 438,180.5C 433.433,183.033 428.6,184.867 423.5,186C 422.177,186.816 421.511,187.983 421.5,189.5C 421.217,190.289 420.717,190.956 420,191.5C 419.257,189.068 417.757,187.401 415.5,186.5C 416.833,186.5 417.5,185.833 417.5,184.5C 418.688,185.684 419.855,185.684 421,184.5C 422.086,180.654 423.919,177.32 426.5,174.5 Z"/></g>
<g><path style="opacity:0.268" fill="#070b0c" d="M 445.5,195.5 C 443.874,195.938 442.207,196.272 440.5,196.5C 438.645,196.66 437.312,195.993 436.5,194.5C 438.575,191.421 441.242,189.088 444.5,187.5C 446.167,186.833 447.833,186.167 449.5,185.5C 451.366,184.986 453.2,184.32 455,183.5C 455.5,183.833 456,184.167 456.5,184.5C 454.378,189.771 450.711,193.438 445.5,195.5 Z"/></g>
<g><path style="opacity:0.131" fill="#0b1112" d="M 477.5,186.5 C 475.836,187.999 473.836,188.999 471.5,189.5C 470.893,189.376 470.56,189.043 470.5,188.5C 471.627,187.878 472.627,187.045 473.5,186C 475.066,185.235 476.399,185.402 477.5,186.5 Z"/></g>
<g><path style="opacity:0.139" fill="#080a0b" d="M 462.5,193.5 C 458.733,196.225 454.733,197.225 450.5,196.5C 455.379,193.367 460.546,190.7 466,188.5C 467.257,188.85 467.591,189.517 467,190.5C 465.729,191.883 464.229,192.883 462.5,193.5 Z"/></g>
<g><path style="opacity:1" fill="#0ba9e7" d="M 384.5,163.5 C 384.992,167.974 386.659,171.974 389.5,175.5C 389.833,177.5 390.167,179.5 390.5,181.5C 371.47,210.11 345.136,219.777 311.5,210.5C 309.68,208.552 307.346,207.552 304.5,207.5C 299.678,206.002 295.678,203.336 292.5,199.5C 291.415,197.413 289.749,196.08 287.5,195.5C 287.739,193.533 287.406,191.699 286.5,190C 287.717,188.352 288.55,186.519 289,184.5C 291.941,184.059 293.774,182.393 294.5,179.5C 295.167,181.167 295.833,182.833 296.5,184.5C 297.167,184.167 297.833,183.833 298.5,183.5C 299.265,184.612 300.265,185.279 301.5,185.5C 307.03,189.433 313.03,192.6 319.5,195C 325.969,196.465 332.302,196.632 338.5,195.5C 341.455,194.841 344.455,194.508 347.5,194.5C 350.871,196.499 353.871,195.666 356.5,192C 358.686,190.691 360.853,190.524 363,191.5C 363.36,189.579 364.194,187.912 365.5,186.5C 369.858,183.363 371.191,184.363 369.5,189.5C 369.733,190.932 370.4,191.432 371.5,191C 372.641,190.259 372.641,189.425 371.5,188.5C 375.007,186.539 376.34,183.539 375.5,179.5C 374.448,179.649 373.448,179.483 372.5,179C 374.298,174.903 377.131,171.737 381,169.5C 381.333,166.5 381.667,163.5 382,160.5C 382.852,161.571 383.685,162.571 384.5,163.5 Z"/></g>
<g><path style="opacity:0.592" fill="#458ca6" d="M 439.5,183.5 C 440.945,185.063 442.611,186.396 444.5,187.5C 441.242,189.088 438.575,191.421 436.5,194.5C 435.883,194.611 435.383,194.944 435,195.5C 433.351,194.047 431.518,193.047 429.5,192.5C 434.551,191.323 437.885,188.323 439.5,183.5 Z"/></g>
<g><path style="opacity:0.675" fill="#366b80" d="M 287.5,195.5 C 289.749,196.08 291.415,197.413 292.5,199.5C 290.251,198.92 288.585,197.587 287.5,195.5 Z"/></g>
<g><path style="opacity:0.749" fill="#205367" d="M 304.5,207.5 C 307.346,207.552 309.68,208.552 311.5,210.5C 308.843,210.065 306.509,209.065 304.5,207.5 Z"/></g>
<g><path style="opacity:0.217" fill="#020202" d="M 240.5,228.5 C 239.84,262.517 240.507,296.183 242.5,329.5C 245.167,329.167 247.833,328.833 250.5,328.5C 250.187,293.469 250.52,258.469 251.5,223.5C 248.833,223.5 246.167,223.5 243.5,223.5C 247.616,221.042 251.95,220.876 256.5,223C 257.701,223.903 258.535,225.069 259,226.5C 259.667,261.833 259.667,297.167 259,332.5C 254.909,336.305 250.076,337.472 244.5,336C 241.898,335.065 240.398,333.232 240,330.5C 239.169,296.331 239.336,262.331 240.5,228.5 Z"/></g>
<g><path style="opacity:0.212" fill="#000001" d="M 280.5,329.5 C 281.5,329.5 282.5,329.5 283.5,329.5C 302.466,328.538 321.466,328.204 340.5,328.5C 340.274,325.751 340.607,323.084 341.5,320.5C 324.847,319.501 308.18,319.167 291.5,319.5C 291.5,288.833 291.5,258.167 291.5,227.5C 291.5,226.167 291.5,224.833 291.5,223.5C 288.833,223.5 286.167,223.5 283.5,223.5C 287.616,221.042 291.95,220.876 296.5,223C 298.487,224.319 299.654,226.152 300,228.5C 300.333,258.167 300.667,287.833 301,317.5C 315.759,318.325 330.592,318.825 345.5,319C 348.817,320.804 350.15,323.637 349.5,327.5C 350.17,331.325 348.837,334.158 345.5,336C 325.167,336.667 304.833,336.667 284.5,336C 281.762,334.688 280.428,332.522 280.5,329.5 Z"/></g>
<g><path style="opacity:0.202" fill="#020202" d="M 418.5,318.5 C 402.675,319.496 386.675,319.83 370.5,319.5C 370.5,306.167 370.5,292.833 370.5,279.5C 385.833,279.5 401.167,279.5 416.5,279.5C 416.5,276.833 416.5,274.167 416.5,271.5C 401.167,271.5 385.833,271.5 370.5,271.5C 370.5,258.167 370.5,244.833 370.5,231.5C 386.167,231.5 401.833,231.5 417.5,231.5C 417.292,229.08 417.626,226.747 418.5,224.5C 400.179,223.5 381.845,223.167 363.5,223.5C 364.263,222.732 365.263,222.232 366.5,222C 384.5,221.333 402.5,221.333 420.5,222C 422.329,222.273 423.829,223.107 425,224.5C 426.504,228.039 426.837,231.705 426,235.5C 425.5,237.333 424.333,238.5 422.5,239C 408.239,240.449 393.906,240.949 379.5,240.5C 379.182,250.083 379.515,259.583 380.5,269C 393.5,269.333 406.5,269.667 419.5,270C 423.48,271.478 425.146,274.312 424.5,278.5C 425.15,282.363 423.817,285.196 420.5,287C 407.167,287.333 393.833,287.667 380.5,288C 379.349,297.756 379.182,307.589 380,317.5C 392.754,318.489 405.587,318.822 418.5,318.5 Z"/></g>
<g><path style="opacity:0.377" fill="#747474" d="M 202.5,223.5 C 206.012,222.945 209.012,223.612 211.5,225.5C 207.167,224.167 202.833,224.167 198.5,225.5C 199.183,223.824 200.517,223.157 202.5,223.5 Z"/></g>
<g><path style="opacity:0.995" fill="#3f3f40" d="M 125.5,224.5 C 137.485,238.829 149.152,253.496 160.5,268.5C 163.706,269.579 165.373,268.246 165.5,264.5C 169.777,260.817 173.444,256.484 176.5,251.5C 178.027,251.573 179.027,250.906 179.5,249.5C 185.117,240.889 191.45,232.889 198.5,225.5C 202.833,224.167 207.167,224.167 211.5,225.5C 211.667,259.835 211.5,294.168 211,328.5C 208.281,329.444 205.448,329.777 202.5,329.5C 201.841,301.402 201.175,273.402 200.5,245.5C 200.808,243.076 200.474,240.743 199.5,238.5C 186.863,253.818 174.529,269.485 162.5,285.5C 149.445,270.775 137.111,255.441 125.5,239.5C 125.217,238.711 124.717,238.044 124,237.5C 123.5,267.498 123.333,297.498 123.5,327.5C 121.214,327.595 119.214,328.262 117.5,329.5C 116.833,329.5 116.167,329.5 115.5,329.5C 114.507,294.573 114.174,259.573 114.5,224.5C 118.167,224.5 121.833,224.5 125.5,224.5 Z"/></g>
<g><path style="opacity:0.999" fill="#424243" d="M 291.5,227.5 C 291.5,258.167 291.5,288.833 291.5,319.5C 308.18,319.167 324.847,319.501 341.5,320.5C 340.607,323.084 340.274,325.751 340.5,328.5C 321.466,328.204 302.466,328.538 283.5,329.5C 281.517,294.722 280.85,259.722 281.5,224.5C 284.5,224.5 287.5,224.5 290.5,224.5C 290.263,225.791 290.596,226.791 291.5,227.5 Z"/></g>
<g><path style="opacity:0.998" fill="#444446" d="M 363.5,223.5 C 381.845,223.167 400.179,223.5 418.5,224.5C 417.626,226.747 417.292,229.08 417.5,231.5C 401.833,231.5 386.167,231.5 370.5,231.5C 370.5,244.833 370.5,258.167 370.5,271.5C 385.833,271.5 401.167,271.5 416.5,271.5C 416.5,274.167 416.5,276.833 416.5,279.5C 401.167,279.5 385.833,279.5 370.5,279.5C 370.5,292.833 370.5,306.167 370.5,319.5C 386.675,319.83 402.675,319.496 418.5,318.5C 418.833,318.5 419.167,318.5 419.5,318.5C 420.011,322.03 419.344,325.196 417.5,328C 398.469,328.204 379.469,328.704 360.5,329.5C 360.5,295.5 360.5,261.5 360.5,227.5C 360.5,226.167 360.5,224.833 360.5,223.5C 361.5,223.5 362.5,223.5 363.5,223.5 Z"/></g>
<g><path style="opacity:0.094" fill="#b0b0b0" d="M 449.5,225.5 C 448.486,226.674 447.153,227.34 445.5,227.5C 445.91,224.569 447.244,223.903 449.5,225.5 Z"/></g>
<g><path style="opacity:0.225" fill="#010101" d="M 113.5,227.5 C 112.84,261.85 113.507,295.85 115.5,329.5C 116.167,329.5 116.833,329.5 117.5,329.5C 119.792,329.756 121.959,329.423 124,328.5C 124.168,298.664 124.668,268.997 125.5,239.5C 137.111,255.441 149.445,270.775 162.5,285.5C 174.529,269.485 186.863,253.818 199.5,238.5C 200.474,240.743 200.808,243.076 200.5,245.5C 200.831,272.672 200.498,299.672 199.5,326.5C 199.667,302.831 199.5,279.164 199,255.5C 190.092,266.318 181.426,277.318 173,288.5C 168.075,293.74 163.409,293.406 159,287.5C 150.659,276.996 142.159,266.663 133.5,256.5C 132.667,281.827 132.167,307.16 132,332.5C 129.981,335.882 126.981,337.216 123,336.5C 119.479,336.917 116.479,335.917 114,333.5C 112.853,315.396 112.353,297.23 112.5,279C 112.5,261.663 112.833,244.497 113.5,227.5 Z"/></g>
<g><path style="opacity:0.162" fill="#010101" d="M 360.5,227.5 C 360.5,261.5 360.5,295.5 360.5,329.5C 379.469,328.704 398.469,328.204 417.5,328C 419.344,325.196 420.011,322.03 419.5,318.5C 422.961,318.146 425.461,319.479 427,322.5C 427.667,325.833 427.667,329.167 427,332.5C 425.786,334.049 424.286,335.215 422.5,336C 403.167,336.667 383.833,336.667 364.5,336C 363.069,335.535 361.903,334.701 361,333.5C 359.853,315.396 359.353,297.23 359.5,279C 359.5,261.663 359.833,244.497 360.5,227.5 Z"/></g>
<g><path style="opacity:1" fill="#3f3f40" d="M 241.5,223.5 C 242.167,223.5 242.833,223.5 243.5,223.5C 246.167,223.5 248.833,223.5 251.5,223.5C 250.52,258.469 250.187,293.469 250.5,328.5C 247.833,328.833 245.167,329.167 242.5,329.5C 241.507,294.24 241.174,258.906 241.5,223.5 Z"/></g>
<g><path style="opacity:0.431" fill="#8b8b8c" d="M 241.5,223.5 C 241.174,258.906 241.507,294.24 242.5,329.5C 240.507,296.183 239.84,262.517 240.5,228.5C 240.714,226.856 240.38,225.356 239.5,224C 240.094,223.536 240.761,223.369 241.5,223.5 Z"/></g>
<g><path style="opacity:0.732" fill="#1e1e1e" d="M 125.5,239.5 C 124.668,268.997 124.168,298.664 124,328.5C 121.959,329.423 119.792,329.756 117.5,329.5C 119.214,328.262 121.214,327.595 123.5,327.5C 123.333,297.498 123.5,267.498 124,237.5C 124.717,238.044 125.217,238.711 125.5,239.5 Z"/></g>
<g><path style="opacity:0.473" fill="#8c8c8d" d="M 115.5,223.5 C 119.042,223.187 122.375,223.521 125.5,224.5C 121.833,224.5 118.167,224.5 114.5,224.5C 114.174,259.573 114.507,294.573 115.5,329.5C 113.507,295.85 112.84,261.85 113.5,227.5C 113.67,226.178 113.337,225.011 112.5,224C 113.448,223.517 114.448,223.351 115.5,223.5 Z"/></g>
<g><path style="opacity:0.2" fill="#808084" d="M 283.5,223.5 C 286.167,223.5 288.833,223.5 291.5,223.5C 291.5,224.833 291.5,226.167 291.5,227.5C 290.596,226.791 290.263,225.791 290.5,224.5C 287.5,224.5 284.5,224.5 281.5,224.5C 280.85,259.722 281.517,294.722 283.5,329.5C 282.5,329.5 281.5,329.5 280.5,329.5C 280.5,294.167 280.5,258.833 280.5,223.5C 281.5,223.5 282.5,223.5 283.5,223.5 Z"/></g>
<g><path style="opacity:0.118" fill="#bfbfbf" d="M 179.5,249.5 C 179.027,250.906 178.027,251.573 176.5,251.5C 176.973,250.094 177.973,249.427 179.5,249.5 Z"/></g>
<g><path style="opacity:0.386" fill="#909090" d="M 200.5,245.5 C 201.175,273.402 201.841,301.402 202.5,329.5C 201.222,329.218 200.222,328.551 199.5,327.5C 199.5,327.167 199.5,326.833 199.5,326.5C 200.498,299.672 200.831,272.672 200.5,245.5 Z"/></g>
<g><path style="opacity:0.056" fill="#010101" d="M 435.5,255.5 C 437.397,260.921 440.731,265.421 445.5,269C 456.26,275.796 466.76,282.963 477,290.5C 480.696,294.421 482.53,299.087 482.5,304.5C 480.538,300.016 477.538,296.183 473.5,293C 461.002,286.666 449.836,278.5 440,268.5C 437.398,264.526 435.898,260.193 435.5,255.5 Z"/></g>
<g><path style="opacity:1" fill="#404041" d="M 437.5,322.5 C 436.57,318.6 436.237,314.6 436.5,310.5C 437.167,310.5 437.833,310.5 438.5,310.5C 447.134,319.243 457.467,322.243 469.5,319.5C 477.323,317.52 481.656,312.52 482.5,304.5C 482.53,299.087 480.696,294.421 477,290.5C 466.76,282.963 456.26,275.796 445.5,269C 440.731,265.421 437.397,260.921 435.5,255.5C 433.529,244.066 436.863,234.733 445.5,227.5C 447.153,227.34 448.486,226.674 449.5,225.5C 450.93,224.463 452.597,223.796 454.5,223.5C 466.473,219.767 477.64,221.434 488,228.5C 488.498,231.817 488.665,235.15 488.5,238.5C 483.361,235.705 478.028,233.205 472.5,231C 467.833,230.333 463.167,230.333 458.5,231C 455.205,233.231 451.705,235.064 448,236.5C 444.233,244.052 444.733,251.219 449.5,258C 458.279,264.763 467.613,270.763 477.5,276C 494.674,289.428 497.007,304.928 484.5,322.5C 480.415,324.667 476.415,327.001 472.5,329.5C 464.585,329.676 456.585,329.176 448.5,328C 444.504,326.669 440.837,324.835 437.5,322.5 Z"/></g>
<g><path style="opacity:0.032" fill="#000000" d="M 469.5,319.5 C 457.467,322.243 447.134,319.243 438.5,310.5C 440.854,309.316 443.187,309.482 445.5,311C 452.365,316.928 460.365,319.761 469.5,319.5 Z"/></g>
<g><path style="opacity:0.094" fill="#a3a3a3" d="M 436.5,310.5 C 436.237,314.6 436.57,318.6 437.5,322.5C 436.833,322.5 436.167,322.5 435.5,322.5C 435.183,318.298 435.517,314.298 436.5,310.5 Z"/></g>
</svg>
